<svg width="61" height="60" viewBox="0 0 61 60" fill="none" xmlns="http://www.w3.org/2000/svg">
<path d="M30.5 32.5C31.9958 32.4999 33.4574 32.9471 34.6971 33.7841C35.9367 34.621 36.8978 35.8096 37.4569 37.1969C38.0159 38.5843 38.1473 40.1071 37.8343 41.5698C37.5212 43.0324 36.7779 44.368 35.7 45.405L30.925 50H38V55H23V50.69L32.2325 41.8025C32.5304 41.5162 32.7527 41.1604 32.8794 40.7671C33.0062 40.3739 33.0335 39.9553 32.9589 39.5489C32.8843 39.1424 32.7102 38.7608 32.452 38.4382C32.1938 38.1156 31.8597 37.862 31.4795 37.7001C31.0994 37.5382 30.685 37.473 30.2735 37.5104C29.862 37.5479 29.4662 37.6867 29.1215 37.9146C28.7767 38.1424 28.4939 38.4522 28.2982 38.8161C28.1025 39.18 28 39.5868 28 40H23C23 38.0109 23.7902 36.1032 25.1967 34.6967C26.6032 33.2902 28.5109 32.5 30.5 32.5V32.5ZM45.5 32.5V42.5H50.5V32.5H55.5V55H50.5V47.5H40.5V32.5H45.5ZM10.5 30C10.4969 32.999 11.1696 35.9601 12.468 38.6634C13.7664 41.3667 15.6572 43.7428 18 45.615V51.655C14.198 49.4614 11.041 46.305 8.8466 42.5035C6.65223 38.7019 5.49797 34.3894 5.5 30H10.5ZM30.5 5.00001C43.4625 5.00001 54.1225 14.8675 55.375 27.5H50.345C49.8579 23.6376 48.2543 20.0013 45.7308 17.0369C43.2073 14.0725 39.8737 11.909 36.1386 10.8115C32.4034 9.71401 28.4293 9.73035 24.7033 10.8585C20.9773 11.9866 17.6615 14.1775 15.1625 17.1625L20.5 22.5H5.5V7.50001L11.6175 13.615C13.9622 10.908 16.8622 8.73743 20.1204 7.25089C23.3786 5.76436 26.9187 4.99667 30.5 5.00001V5.00001Z" fill="#FF9F10"/>
</svg>
