<svg width="624" height="624" viewBox="0 0 624 624" fill="none" xmlns="http://www.w3.org/2000/svg">
<path d="M462 63C441.939 16 333.5 -9.00001 270.5 53.5C244.167 78.3333 195.402 100.467 174 133.5C151 169 172.494 254.85 134 281.5C121 290.5 90.9292 302.2 62.5 327C39 347.5 4.00354 455.836 53 492C73.9999 507.5 90.8227 457.5 134 457.5C183.5 457.5 155.122 492 209 520C267.847 550.582 209.5 560.5 260.5 585C347.759 626.918 525 606.5 588 531.5C651 456.5 557 419 534.5 413C480 398.467 483.184 441.167 442.5 418.5C432.628 413 432.04 380.922 458 359C480.5 340 543.514 347.753 570.5 308.5C609 252.5 510 220.717 497 212.5C444 179 497 145 462 63Z" fill="#B3CFE3"/>
<g clip-path="url(#clip0_430_815)">
<path d="M495.938 250.175L481.446 289.62C481.446 289.62 473.741 290.565 462.109 291.009C462.083 291.012 462.06 291.012 462.033 291.012C436.248 291.99 391.268 290.488 368.016 270.8C344.12 253.631 372.17 199.283 383.851 211.514C383.858 211.518 383.865 211.524 383.868 211.531C384.215 211.892 384.556 212.259 384.892 212.631C385.005 212.754 385.115 212.879 385.221 212.999C385.105 213.138 419.185 212.999 419.185 212.999L421.301 239.026C421.301 239.026 442.256 246.85 461.257 248.643C463.273 248.879 482.172 250.824 495.938 250.175Z" fill="white"/>
<path d="M450.563 291.979C424.669 291.979 387.882 288.582 367.555 271.391C359.601 265.659 356.408 255.218 358.564 241.989C361.005 227.012 370.013 211.749 377.84 209.326C380.338 208.552 382.602 209.128 384.385 210.99L384.409 211.015L384.41 211.015C384.807 211.428 385.197 211.848 385.579 212.275C388.07 212.348 406.683 212.302 419.182 212.251H419.185C419.373 212.251 419.554 212.322 419.693 212.449C419.831 212.577 419.916 212.751 419.931 212.939L422.008 238.488C425.139 239.617 444.16 246.279 461.328 247.899C461.537 247.923 481.511 250.106 495.903 249.428C496.156 249.419 496.394 249.53 496.542 249.733C496.69 249.935 496.728 250.198 496.641 250.433L482.149 289.878C482.101 290.008 482.019 290.121 481.911 290.207C481.803 290.292 481.674 290.346 481.537 290.363C481.46 290.372 473.679 291.315 462.162 291.756C462.125 291.759 462.087 291.76 462.049 291.76C458.575 291.892 454.706 291.979 450.563 291.979ZM379.928 210.49C379.402 210.49 378.853 210.578 378.282 210.755C371.056 212.991 362.361 227.993 360.041 242.229C358.847 249.557 358.351 262.934 368.453 270.193C368.469 270.204 368.485 270.217 368.5 270.229C391.692 289.866 437.037 291.211 462.005 290.264L462.033 290.264C462.049 290.262 462.065 290.261 462.081 290.261C471.972 289.883 479.089 289.134 480.902 288.93L494.849 250.968C482.15 251.429 465.147 249.85 461.17 249.386C442.305 247.606 421.249 239.805 421.039 239.727C420.906 239.677 420.789 239.591 420.704 239.477C420.618 239.364 420.566 239.228 420.555 239.087L418.495 213.749C416.299 213.758 409.228 213.785 402.228 213.799C397.302 213.809 393.374 213.811 390.553 213.806C388.957 213.802 387.625 213.797 386.691 213.787C386.219 213.782 385.848 213.777 385.593 213.77C385.17 213.759 384.827 213.75 384.614 213.442L384.572 213.395C384.497 213.31 384.42 213.223 384.342 213.138C384.011 212.771 383.675 212.41 383.333 212.054C383.325 212.046 383.317 212.038 383.31 212.03C382.33 211.005 381.197 210.49 379.928 210.49ZM462.015 290.267H462.014H462.015Z" fill="#2D314C"/>
<path d="M461.257 248.644C463.273 248.879 482.172 250.824 495.938 250.175C500.113 249.979 503.816 249.542 506.432 248.75C517.679 245.336 509.589 253.545 504.254 257.525C536.833 271.248 537.274 281.471 522.751 275.994C527.798 279.828 535.036 290.886 529.495 290.306C531.886 294.068 532.012 298.482 518.464 290.989C524.293 299.068 519.29 296.769 507.467 292.775C495.842 288.848 482.891 290.436 462.109 291.009C462.083 291.012 462.059 291.012 462.033 291.012C459.423 291.085 456.688 291.141 453.817 291.168" fill="white"/>
<path d="M519.709 297.156C517.962 297.156 514.97 296.131 510.181 294.491C509.25 294.172 508.265 293.834 507.227 293.484C498.008 290.37 487.722 290.781 473.485 291.352C469.911 291.495 466.217 291.644 462.157 291.756C462.116 291.759 462.075 291.761 462.033 291.76C459.165 291.841 456.473 291.891 453.824 291.916H453.817C453.619 291.917 453.428 291.839 453.287 291.699C453.146 291.559 453.066 291.369 453.065 291.171C453.065 290.973 453.143 290.782 453.282 290.641C453.422 290.5 453.612 290.421 453.811 290.42C456.45 290.396 459.133 290.345 462.013 290.264L462.038 290.264C462.055 290.262 462.072 290.261 462.089 290.261C466.15 290.149 469.849 290.001 473.425 289.858C487.823 289.28 498.225 288.864 507.707 292.066C508.747 292.418 509.734 292.756 510.666 293.075C514.958 294.545 519.397 296.065 520.152 295.606C520.188 295.432 520.146 294.598 517.858 291.426C517.758 291.288 517.709 291.121 517.717 290.951C517.726 290.781 517.792 290.62 517.905 290.492C518.018 290.365 518.17 290.28 518.338 290.251C518.506 290.223 518.678 290.252 518.827 290.334C527.906 295.356 529.579 294.321 529.823 294.063C530.161 293.705 530.004 292.502 528.864 290.707C528.788 290.588 528.748 290.451 528.747 290.31C528.746 290.17 528.785 290.032 528.859 289.912C528.933 289.793 529.04 289.697 529.166 289.635C529.292 289.573 529.433 289.548 529.573 289.562C530.506 289.659 530.631 289.344 530.672 289.24C531.442 287.298 526.433 279.73 522.298 276.589C522.155 276.48 522.056 276.324 522.019 276.148C521.982 275.972 522.009 275.789 522.096 275.631C522.184 275.474 522.324 275.353 522.493 275.291C522.662 275.229 522.847 275.23 523.016 275.294C528.351 277.306 530.809 276.88 531.105 276.14C531.372 275.471 530.564 273.4 525.841 269.875C522.409 267.314 515.828 263.212 503.963 258.214C503.841 258.163 503.736 258.081 503.656 257.976C503.577 257.871 503.527 257.746 503.511 257.615C503.495 257.485 503.514 257.352 503.566 257.231C503.617 257.11 503.7 257.004 503.806 256.926C505.803 255.436 507.855 253.613 509.293 252.049C511.55 249.596 511.339 248.848 511.335 248.843C511.331 248.836 510.723 248.229 506.65 249.465C504.169 250.217 500.578 250.706 495.973 250.922C483.177 251.526 465.266 249.864 461.171 249.387C460.973 249.364 460.794 249.263 460.67 249.108C460.547 248.952 460.491 248.754 460.514 248.557C460.537 248.36 460.638 248.181 460.793 248.058C460.949 247.935 461.147 247.878 461.344 247.901C461.537 247.924 481.511 250.106 495.903 249.428C500.384 249.218 503.853 248.749 506.215 248.034C510.045 246.871 512.037 246.913 512.671 248.168C513.214 249.241 512.476 250.811 510.35 253.11C509.105 254.457 507.43 255.983 505.724 257.337C516.989 262.168 523.355 266.152 526.737 268.677C532.442 272.935 533.018 275.387 532.495 276.694C531.84 278.335 529.439 278.684 525.75 277.741C529.259 281.442 533.081 287.225 532.064 289.791C531.911 290.177 531.554 290.733 530.735 290.966C531.657 292.784 531.726 294.225 530.913 295.089C529.261 296.843 524.778 295.102 520.721 293.039C521.725 294.77 521.886 295.79 521.36 296.5C521.027 296.949 520.493 297.156 519.709 297.156ZM288.563 222.503C267.466 198.032 216.309 170.811 210.97 180.647C204.442 192.674 288.563 222.503 288.563 222.503Z" fill="#2D314C"/>
<path d="M326.694 125.703C309.276 98.8696 234.32 139.37 210.97 180.647C218.486 170.03 273.399 206.945 287.953 223.43C317.655 191.172 336.66 141.056 326.694 125.703Z" fill="#FF9F10"/>
<path d="M338.831 127.037L321.644 125.306C321.644 125.306 264.768 144.764 227.145 244.022C256.261 270.838 316.309 296.331 338.324 292.737C355.457 277.178 372.636 240.647 372.636 240.647C372.636 240.647 398.949 230.404 421.346 228.653C418.759 171.62 392.569 144.273 381.142 147.918C379.409 146.515 376.807 144.01 376.807 144.01L338.831 127.037Z" fill="#FF9F10"/>
<path d="M132.98 376.415C142.707 359.62 161.048 328.066 142.311 325.294C123.517 322.514 119.759 370.892 122.411 406.8C122.412 406.799 128.039 384.948 132.98 376.415Z" fill="#2D314C"/>
<path d="M151.637 370.992L122.414 406.795L122.412 406.798C118.919 405.526 115.975 404.412 113.491 403.444C112.71 403.138 111.971 402.846 111.275 402.569C110.447 402.24 109.681 401.928 108.973 401.637C108.275 401.35 107.58 401.058 106.887 400.761C101.501 398.46 100.411 397.602 100.266 397.478C100.259 397.473 100.253 397.467 100.249 397.46H100.246C100.246 397.46 100.234 397.415 100.214 397.33V397.328C100.142 397.026 99.9644 396.226 99.8023 395.046C99.448 392.448 99.1636 388.007 100.241 383.001C100.279 382.819 100.321 382.637 100.364 382.452C100.556 381.619 100.784 380.795 101.047 379.981C101.092 379.844 101.137 379.704 101.184 379.565C101.823 377.659 102.656 375.823 103.669 374.087C103.751 373.947 103.834 373.805 103.921 373.665C104.175 373.246 104.442 372.828 104.727 372.411C104.876 372.189 105.029 371.972 105.188 371.753C105.271 371.638 105.355 371.521 105.445 371.404C105.767 370.966 106.103 370.54 106.453 370.125C107.179 369.249 107.982 368.387 108.863 367.546C109.796 366.659 110.819 365.794 111.939 364.961H111.941C111.954 364.948 111.966 364.941 111.979 364.931C111.994 364.921 112.006 364.908 112.021 364.898L112.034 364.901L112.138 364.921C112.176 364.928 112.223 364.938 112.281 364.948C112.473 364.988 112.775 365.046 113.171 365.123C113.189 365.125 113.206 365.13 113.226 365.133C113.316 365.15 113.408 365.168 113.508 365.188C113.585 365.203 113.665 365.218 113.75 365.233C113.857 365.252 113.967 365.275 114.082 365.297C114.157 365.31 114.234 365.325 114.311 365.34C114.317 365.34 114.319 365.342 114.324 365.342C114.469 365.37 114.618 365.397 114.773 365.427C114.93 365.457 115.09 365.487 115.257 365.517C115.641 365.589 116.053 365.666 116.492 365.746C117.205 365.878 117.994 366.023 118.844 366.175C119.44 366.285 120.067 366.397 120.72 366.512C121.259 366.606 121.813 366.704 122.389 366.803C122.429 366.811 122.469 366.818 122.511 366.826C125.732 367.387 129.477 368.015 133.436 368.626C134.648 368.813 135.883 369 137.125 369.182C141.983 369.893 146.997 370.543 151.637 370.992Z" fill="white"/>
<path d="M122.409 407.545C122.323 407.545 122.237 407.53 122.156 407.5C119.164 406.413 116.185 405.294 113.219 404.141C112.478 403.85 111.738 403.558 110.999 403.263C110.226 402.956 109.456 402.645 108.688 402.328C107.987 402.04 107.288 401.747 106.592 401.448C101.323 399.197 100.044 398.273 99.7778 398.044L99.778 398.044C99.7655 398.033 99.7533 398.021 99.7414 398.01C99.6378 397.915 99.5629 397.794 99.5251 397.659C99.5251 397.659 99.5099 397.604 99.4859 397.502C99.4836 397.493 99.4817 397.484 99.4802 397.475C99.4043 397.156 99.2255 396.341 99.0616 395.148C98.6722 392.293 98.4342 387.842 99.5104 382.843C99.542 382.687 99.5795 382.524 99.6176 382.36L99.6349 382.285C99.7647 381.721 99.9106 381.162 100.072 380.607C100.154 380.324 100.241 380.038 100.337 379.748L100.375 379.631C101.043 377.567 101.932 375.582 103.024 373.708L103.071 373.629C103.141 373.509 103.212 373.388 103.287 373.269C103.55 372.835 103.824 372.408 104.109 371.989C104.263 371.761 104.422 371.535 104.584 371.312C104.668 371.196 104.757 371.073 104.851 370.949C105.18 370.502 105.524 370.066 105.882 369.642C106.631 368.739 107.461 367.85 108.347 367.005C109.341 366.061 110.392 365.178 111.493 364.361L111.5 364.355L111.525 364.337C111.531 364.332 111.536 364.329 111.539 364.326C111.625 364.254 111.726 364.203 111.835 364.175C111.943 364.147 112.056 364.143 112.166 364.165L112.41 364.211C112.572 364.245 112.767 364.282 113.015 364.33L113.315 364.389L113.343 364.394L113.37 364.399L113.656 364.455C113.726 364.468 113.801 364.482 113.882 364.497C113.962 364.511 114.037 364.526 114.114 364.542L114.226 364.564C114.279 364.572 114.355 364.587 114.431 364.601L114.474 364.609L114.915 364.693C115.068 364.722 115.225 364.751 115.39 364.781C115.779 364.854 116.189 364.931 116.626 365.011C117.341 365.143 118.128 365.287 118.977 365.439C119.575 365.549 120.199 365.661 120.85 365.776C121.389 365.87 121.942 365.968 122.518 366.067L122.644 366.09C126.273 366.724 129.909 367.323 133.551 367.888C134.762 368.074 135.994 368.261 137.235 368.443C142.667 369.238 147.537 369.845 151.71 370.249C151.845 370.262 151.974 370.311 152.082 370.391C152.191 370.472 152.276 370.58 152.329 370.705C152.381 370.83 152.398 370.967 152.378 371.101C152.359 371.235 152.303 371.361 152.218 371.466L122.995 407.269C122.979 407.289 122.962 407.307 122.944 407.325C122.802 407.466 122.61 407.545 122.409 407.545ZM100.912 397.026C101.347 397.322 102.833 398.215 107.182 400.073C107.871 400.369 108.563 400.66 109.257 400.945C110.02 401.259 110.785 401.569 111.552 401.874C112.247 402.15 112.984 402.442 113.764 402.748C116.555 403.832 119.356 404.887 122.168 405.913L150.176 371.598C146.301 371.197 141.882 370.634 137.016 369.922C135.772 369.74 134.535 369.553 133.321 369.365C129.669 368.8 126.023 368.199 122.383 367.563L122.249 367.538C121.696 367.442 121.143 367.346 120.59 367.249C119.963 367.139 119.335 367.026 118.708 366.911C117.86 366.759 117.07 366.615 116.355 366.482C115.942 366.407 115.53 366.33 115.118 366.252C114.954 366.223 114.792 366.192 114.633 366.162L114.184 366.077L114.174 366.075L114.17 366.075C114.084 366.058 114.02 366.046 113.959 366.036L113.822 366.009C113.752 365.995 113.682 365.981 113.613 365.968C113.529 365.953 113.446 365.938 113.364 365.922L113.099 365.871C113.081 365.867 113.063 365.864 113.045 365.86L113.028 365.857L112.729 365.799C112.516 365.758 112.34 365.724 112.205 365.697C111.218 366.44 110.274 367.238 109.379 368.088C108.547 368.88 107.763 369.72 107.029 370.602C106.688 371.007 106.36 371.422 106.047 371.849C105.954 371.969 105.874 372.081 105.796 372.189C105.642 372.4 105.492 372.613 105.347 372.83C105.074 373.23 104.811 373.639 104.56 374.054C104.488 374.17 104.424 374.279 104.36 374.387L104.313 374.466C103.327 376.158 102.516 377.946 101.893 379.803C101.859 379.902 101.828 379.999 101.796 380.095L101.757 380.215C101.67 380.483 101.587 380.752 101.509 381.023C101.355 381.552 101.216 382.084 101.092 382.62L101.075 382.696C101.04 382.848 101.005 383 100.974 383.151C99.9422 387.945 100.17 392.21 100.543 394.945C100.683 395.96 100.832 396.677 100.912 397.026ZM112.467 365.494L112.466 365.494L112.467 365.494ZM112.469 365.492L112.467 365.493L112.469 365.492ZM112.471 365.49L112.469 365.491L112.471 365.49Z" fill="#2D314C"/>
<path d="M120.72 366.511L113.491 403.444C112.71 403.137 111.972 402.846 111.276 402.569C110.447 402.24 109.681 401.928 108.973 401.636C108.276 401.35 107.58 401.058 106.887 400.761C101.501 398.46 100.411 397.602 100.267 397.477C100.26 397.473 100.254 397.467 100.249 397.46C100.249 397.46 100.237 397.415 100.217 397.328V397.325C100.144 397.021 99.9672 396.221 99.805 395.039C99.4483 392.438 99.1664 388.002 100.242 383C100.279 382.818 100.321 382.636 100.364 382.452C100.491 381.913 100.633 381.367 100.79 380.816C100.87 380.539 100.955 380.263 101.047 379.981C101.092 379.844 101.137 379.704 101.185 379.564C101.824 377.658 102.656 375.823 103.669 374.086C103.752 373.947 103.834 373.805 103.921 373.665C104.176 373.246 104.445 372.827 104.727 372.411C104.877 372.189 105.029 371.972 105.189 371.753C105.271 371.638 105.356 371.521 105.446 371.403C105.763 370.975 106.097 370.548 106.453 370.124C107.179 369.249 107.983 368.386 108.863 367.546C109.799 366.658 110.822 365.793 111.942 364.96C111.954 364.951 111.967 364.943 111.979 364.933V364.931C111.994 364.923 112.007 364.911 112.022 364.901L112.034 364.903L112.139 364.921C112.176 364.928 112.224 364.938 112.281 364.948C112.476 364.988 112.775 365.048 113.172 365.123C113.189 365.125 113.206 365.13 113.226 365.133C113.314 365.15 113.409 365.167 113.508 365.187C113.586 365.202 113.665 365.217 113.75 365.232C113.855 365.252 113.967 365.275 114.082 365.297C114.157 365.31 114.234 365.325 114.312 365.339C114.317 365.339 114.319 365.342 114.324 365.342C114.469 365.369 114.618 365.397 114.773 365.427C114.93 365.457 115.09 365.487 115.257 365.517C115.641 365.589 116.053 365.666 116.492 365.746C117.205 365.878 117.994 366.023 118.844 366.175C119.44 366.285 120.067 366.397 120.72 366.511Z" fill="#D9C6F4"/>
<path d="M116.492 365.746L108.973 401.637C108.275 401.35 107.58 401.058 106.887 400.761L114.311 365.34C114.317 365.34 114.319 365.342 114.324 365.342L114.773 365.427L115.257 365.517C115.641 365.589 116.053 365.666 116.492 365.746Z" fill="white"/>
<path d="M122.409 407.545C122.323 407.545 122.237 407.53 122.156 407.5C119.164 406.413 116.185 405.294 113.219 404.141C112.478 403.85 111.738 403.558 110.999 403.263C110.226 402.956 109.456 402.645 108.688 402.328C107.987 402.04 107.288 401.747 106.592 401.448C101.323 399.197 100.044 398.273 99.7778 398.044L99.778 398.044C99.7655 398.033 99.7533 398.021 99.7414 398.01C99.6378 397.915 99.5629 397.794 99.5251 397.659C99.5251 397.659 99.5099 397.604 99.4859 397.502C99.4836 397.493 99.4817 397.484 99.4802 397.475C99.4043 397.156 99.2255 396.341 99.0616 395.148C98.6722 392.293 98.4342 387.842 99.5104 382.843C99.542 382.687 99.5795 382.524 99.6176 382.36L99.6349 382.285C99.7647 381.721 99.9106 381.162 100.072 380.607C100.154 380.324 100.241 380.038 100.337 379.748L100.375 379.631C101.043 377.567 101.932 375.582 103.024 373.708L103.071 373.629C103.141 373.509 103.212 373.388 103.287 373.269C103.55 372.835 103.824 372.408 104.109 371.989C104.263 371.761 104.422 371.535 104.584 371.312C104.668 371.196 104.757 371.073 104.851 370.949C105.18 370.502 105.524 370.066 105.882 369.642C106.631 368.739 107.461 367.85 108.347 367.005C109.341 366.061 110.392 365.178 111.493 364.361L111.5 364.355L111.525 364.337C111.531 364.332 111.536 364.329 111.539 364.326C111.625 364.254 111.726 364.203 111.835 364.175C111.943 364.147 112.056 364.143 112.166 364.165L112.41 364.211C112.572 364.245 112.767 364.282 113.015 364.33L113.315 364.389L113.343 364.394L113.37 364.399L113.656 364.455C113.726 364.468 113.801 364.482 113.882 364.497C113.962 364.511 114.037 364.526 114.114 364.542L114.226 364.564C114.279 364.572 114.355 364.587 114.431 364.601L114.474 364.609L114.915 364.693C115.068 364.722 115.225 364.751 115.39 364.781C115.779 364.854 116.189 364.931 116.626 365.011C117.341 365.143 118.128 365.287 118.977 365.439C119.575 365.549 120.199 365.661 120.85 365.776C121.389 365.87 121.942 365.968 122.518 366.067L122.644 366.09C126.273 366.724 129.909 367.323 133.551 367.888C134.762 368.074 135.994 368.261 137.235 368.443C142.667 369.238 147.537 369.845 151.71 370.249C151.845 370.262 151.974 370.311 152.082 370.391C152.191 370.472 152.276 370.58 152.329 370.705C152.381 370.83 152.398 370.967 152.378 371.101C152.359 371.235 152.303 371.361 152.218 371.466L122.995 407.269C122.979 407.289 122.962 407.307 122.944 407.325C122.802 407.466 122.61 407.545 122.409 407.545ZM100.912 397.026C101.347 397.322 102.833 398.215 107.182 400.073C107.871 400.369 108.563 400.66 109.257 400.945C110.02 401.259 110.785 401.569 111.552 401.874C112.247 402.15 112.984 402.442 113.764 402.748C116.555 403.832 119.356 404.887 122.168 405.913L150.176 371.598C146.301 371.197 141.882 370.634 137.016 369.922C135.772 369.74 134.535 369.553 133.321 369.365C129.669 368.8 126.023 368.199 122.383 367.563L122.249 367.538C121.696 367.442 121.143 367.346 120.59 367.249C119.963 367.139 119.335 367.026 118.708 366.911C117.86 366.759 117.07 366.615 116.355 366.482C115.942 366.407 115.53 366.33 115.118 366.252C114.954 366.223 114.792 366.192 114.633 366.162L114.184 366.077L114.174 366.075L114.17 366.075C114.084 366.058 114.02 366.046 113.959 366.036L113.822 366.009C113.752 365.995 113.682 365.981 113.613 365.968C113.529 365.953 113.446 365.938 113.364 365.922L113.099 365.871C113.081 365.867 113.063 365.864 113.045 365.86L113.028 365.857L112.729 365.799C112.516 365.758 112.34 365.724 112.205 365.697C111.218 366.44 110.274 367.238 109.379 368.088C108.547 368.88 107.763 369.72 107.029 370.602C106.688 371.007 106.36 371.422 106.047 371.849C105.954 371.969 105.874 372.081 105.796 372.189C105.642 372.4 105.492 372.613 105.347 372.83C105.074 373.23 104.811 373.639 104.56 374.054C104.488 374.17 104.424 374.279 104.36 374.387L104.313 374.466C103.327 376.158 102.516 377.946 101.893 379.803C101.859 379.902 101.828 379.999 101.796 380.095L101.757 380.215C101.67 380.483 101.587 380.752 101.509 381.023C101.355 381.552 101.216 382.084 101.092 382.62L101.075 382.696C101.04 382.848 101.005 383 100.974 383.151C99.9422 387.945 100.17 392.21 100.543 394.945C100.683 395.96 100.832 396.677 100.912 397.026ZM112.467 365.494L112.466 365.494L112.467 365.494ZM112.469 365.492L112.467 365.493L112.469 365.492ZM112.471 365.49L112.469 365.491L112.471 365.49Z" fill="#2D314C"/>
<path d="M111.965 364.967C111.965 364.967 82.771 358.435 66.3129 353.218C66.3129 353.218 58.286 406.697 57.4512 425.447C56.9982 435.622 60.1562 440.931 62.588 443.588C62.588 443.588 62.599 443.585 62.6232 443.58C62.6409 443.576 62.6669 443.571 62.6981 443.562C62.6983 443.562 62.6986 443.562 62.6988 443.562C62.699 443.562 62.6992 443.561 62.6993 443.561C62.6995 443.561 62.6996 443.561 62.6996 443.56C62.6996 443.56 62.6996 443.56 62.6996 443.56C64.0467 443.186 77.381 439.158 88.9274 422.066C90.7261 419.401 95.9011 410.764 98.5058 400.383C100.288 393.28 101.598 387.36 102.175 382.482C103.481 371.457 110.798 373.072 111.965 364.967Z" fill="white"/>
<path d="M62.5928 444.335C62.4883 444.335 62.3849 444.314 62.289 444.272C62.1932 444.231 62.107 444.17 62.036 444.093C57.1779 438.785 56.4549 431.005 56.7036 425.413C57.5306 406.839 65.4924 353.642 65.573 353.107C65.5891 353 65.6283 352.898 65.6877 352.807C65.7472 352.717 65.8256 352.64 65.9174 352.583C66.0093 352.526 66.1124 352.489 66.2198 352.476C66.3272 352.462 66.4362 352.472 66.5394 352.505C82.7776 357.653 111.837 364.172 112.128 364.237C112.312 364.278 112.474 364.387 112.581 364.542C112.688 364.697 112.732 364.887 112.706 365.073C112.133 369.052 110.114 370.902 108.161 372.69C105.915 374.747 103.593 376.874 102.919 382.57C102.4 386.951 101.297 392.333 99.232 400.565C96.293 412.278 90.2299 421.474 89.5484 422.484C78.0297 439.535 64.6908 443.774 62.9523 444.266C62.9286 444.274 62.9044 444.281 62.88 444.288C62.854 444.295 62.8278 444.301 62.8014 444.307L62.7732 444.313C62.7142 444.328 62.6536 444.335 62.5928 444.335ZM66.9243 354.194C65.8885 361.174 58.9648 408.286 58.1989 425.48C57.7883 434.709 60.4219 439.928 62.8363 442.74C65.3564 441.966 77.5806 437.527 88.3078 421.647C88.9744 420.66 94.9032 411.667 97.7803 400.201C99.8297 392.034 100.922 386.709 101.433 382.394C102.172 376.146 104.817 373.724 107.15 371.587C108.939 369.948 110.5 368.519 111.107 365.54C106.655 364.531 81.9184 358.867 66.9243 354.194Z" fill="#2D314C"/>
<path d="M112.022 364.651C110.85 373.297 103.553 371.605 102.579 385.409C102.272 389.759 100.307 398.739 96.9556 406.848C96.8346 407.141 96.7144 407.431 96.5944 407.72C96.5607 407.801 96.529 407.88 96.4953 407.959C95.7977 409.616 95.05 411.251 94.2534 412.863C94.1012 413.172 93.9472 413.48 93.7913 413.787C93.5663 414.227 93.342 414.659 93.1148 415.086C92.9388 415.419 92.7598 415.75 92.5777 416.079C92.4305 416.348 92.281 416.616 92.1291 416.883C92.0376 417.048 91.944 417.212 91.8502 417.376C91.6253 417.765 91.3978 418.153 91.1677 418.54C91.1634 418.549 91.1587 418.557 91.1537 418.566C91.0726 418.699 90.9938 418.831 90.9127 418.964C90.6483 419.402 90.3791 419.837 90.1052 420.269C90.0463 420.362 89.9854 420.456 89.9258 420.55C89.2917 421.543 88.6325 422.519 87.949 423.479C87.826 423.655 87.7013 423.829 87.5751 424C87.2021 424.517 86.8207 425.028 86.431 425.532L86.1621 425.881C86.0725 425.998 85.9837 426.112 85.8917 426.226C85.7183 426.447 85.5434 426.663 85.3705 426.88C85.1847 427.11 84.9968 427.338 84.807 427.564C84.7164 427.672 84.6279 427.78 84.5373 427.888C83.9212 428.62 83.2885 429.337 82.6396 430.04C82.3728 430.33 82.1028 430.616 81.8296 430.9C81.6524 431.088 81.4723 431.272 81.2912 431.453C81.2007 431.544 81.1121 431.635 81.0215 431.726C80.7383 432.011 80.4517 432.294 80.1619 432.573C80.092 432.639 80.0227 432.704 79.9528 432.772C79.519 433.187 79.0784 433.595 78.6311 433.995C78.5421 434.073 78.4553 434.152 78.3687 434.228C78.2028 434.376 78.0355 434.523 77.8668 434.668C77.7755 434.748 77.6819 434.828 77.5864 434.907C77.4142 435.054 77.2416 435.2 77.072 435.342C76.9861 435.412 76.9003 435.485 76.8145 435.554L76.5595 435.763L76.3048 435.969C76.0542 436.17 75.8019 436.368 75.5477 436.565L75.299 436.757C75.2164 436.819 75.1316 436.882 75.051 436.945C74.8856 437.07 74.7205 437.194 74.5586 437.311C74.4762 437.371 74.3939 437.431 74.3136 437.491C74.1489 437.611 73.989 437.727 73.8296 437.838C73.6702 437.95 73.5085 438.064 73.3514 438.173C73.1942 438.283 73.0351 438.393 72.8791 438.497C72.7926 438.556 72.706 438.615 72.6194 438.671C72.3254 438.869 72.0289 439.062 71.7301 439.252L71.7283 439.251C71.2934 439.529 70.8534 439.799 70.4087 440.06C69.0902 440.84 67.8908 441.462 66.8467 441.951C66.7652 441.99 66.6858 442.027 66.6063 442.063C57.3487 424.581 65.8326 406.602 70.9116 397.859C75.2927 390.32 71.3003 387.356 74.2338 381.123C76.683 375.917 81.1548 375.401 82.8823 368.587C84.4976 362.219 81.3202 357.379 81.3202 357.379C81.3202 357.379 95.6317 362.147 112.022 364.651Z" fill="#2D314C"/>
<path d="M96.8468 387.508C96.7698 387.458 96.7066 387.389 96.6628 387.308C96.619 387.227 96.5961 387.137 96.5961 387.045C96.5971 380.653 95.1078 378.1 93.2223 374.867C92.6942 373.963 92.1483 373.026 91.5895 371.937C88.3457 365.609 89.6831 360.158 89.7415 359.929C89.7778 359.786 89.8694 359.664 89.9959 359.589C90.0586 359.552 90.128 359.527 90.2001 359.517C90.2722 359.507 90.3457 359.511 90.4163 359.529C90.4869 359.547 90.5532 359.578 90.6116 359.622C90.6699 359.666 90.719 359.72 90.7562 359.783C90.7934 359.846 90.8179 359.915 90.8282 359.987C90.8386 360.059 90.8347 360.132 90.8167 360.203C90.7977 360.279 89.5404 365.508 92.5769 371.431C93.1218 372.494 93.6599 373.416 94.1803 374.309C96.1501 377.686 97.7057 380.353 97.7052 387.045C97.7052 387.145 97.6781 387.243 97.6268 387.329C97.5755 387.415 97.502 387.485 97.4139 387.533C97.3259 387.58 97.2267 387.603 97.1267 387.599C97.0267 387.594 96.9298 387.563 96.8461 387.509L96.8468 387.508ZM142.312 326.291C152.192 328.085 152.024 344.742 136.26 364.751C120.496 384.76 122.412 406.8 122.412 406.8C192.857 435.985 260.356 439.961 308.604 382.719C312.059 374.635 249.742 317.523 239.571 315.623C238 338.215 226.517 351.645 219.208 354.278C185.597 354.505 169.488 330.124 142.312 326.291Z" fill="white"/>
<path d="M212.461 428.358C200.415 428.358 187.623 426.944 174.284 424.131C158.076 420.713 140.527 415.114 122.126 407.491C121.999 407.438 121.89 407.352 121.809 407.242C121.728 407.131 121.679 407.001 121.667 406.864C121.647 406.635 121.196 401.161 122.689 393.142C124.065 385.75 127.434 374.744 135.672 364.288C145.621 351.659 150.28 338.825 147.539 331.592C146.584 329.069 144.729 327.49 142.178 327.027C141.985 326.992 141.814 326.882 141.701 326.723C141.588 326.563 141.542 326.365 141.573 326.172C141.604 325.978 141.71 325.805 141.868 325.689C142.025 325.573 142.222 325.523 142.416 325.55C154.436 327.245 164.113 332.796 174.358 338.672C187.097 345.979 200.266 353.532 218.745 353.532L219.073 353.531C226.41 350.785 237.315 337.275 238.825 315.571C238.832 315.465 238.861 315.363 238.911 315.27C238.961 315.177 239.03 315.095 239.113 315.031C239.197 314.966 239.293 314.92 239.396 314.895C239.498 314.87 239.605 314.868 239.709 314.887C244.713 315.823 260.722 328.845 274.368 341.337C287.783 353.618 303.728 369.748 308.245 378.19C309.408 380.363 309.751 381.941 309.293 383.013C309.264 383.081 309.225 383.145 309.177 383.201C297.445 397.12 284.063 407.954 269.402 415.402C255.618 422.404 240.306 426.615 223.891 427.916C220.164 428.211 216.351 428.358 212.461 428.358ZM123.131 406.287C141.289 413.784 158.602 419.295 174.593 422.667C192.098 426.359 208.645 427.622 223.773 426.424C239.992 425.138 255.116 420.981 268.724 414.068C283.169 406.729 296.365 396.054 307.947 382.338C308.05 381.978 308.071 381.037 306.925 378.895C303.276 372.076 290.1 357.767 273.357 342.44C258.344 328.697 245.107 318.389 240.248 316.594C239.228 329.009 235.32 337.689 232.179 342.825C228.46 348.908 223.706 353.452 219.462 354.982C219.382 355.011 219.298 355.026 219.213 355.026C219.055 355.027 218.898 355.028 218.741 355.028C199.867 355.028 186.521 347.374 173.612 339.969C164.914 334.98 156.63 330.229 147.02 327.943C147.827 328.788 148.473 329.831 148.939 331.062C150.32 334.708 150.033 339.689 148.108 345.465C146.046 351.651 142.152 358.479 136.847 365.213C128.812 375.411 125.518 386.15 124.17 393.362C122.945 399.915 123.058 404.826 123.131 406.287Z" fill="#2D314C"/>
<path d="M321.049 495.291C305.57 483.575 276.499 461.888 271.44 480.132C266.367 498.432 313.938 507.725 349.918 509.515C349.918 509.514 328.914 501.243 321.049 495.291Z" fill="#2D314C"/>
<path d="M352.434 509.978C351.214 511.973 349.124 515.289 346.891 518.805C345.976 520.249 345.038 521.725 344.125 523.153C343.705 523.814 343.289 524.465 342.885 525.098C341.635 527.056 340.49 528.848 339.592 530.247C339.405 530.541 339.227 530.821 339.06 531.077C338.671 531.688 338.349 532.19 338.117 532.551C337.843 532.977 337.693 533.214 337.693 533.214C337.693 533.214 337.237 533.147 336.431 533.032C330.606 532.195 306.475 528.724 303.339 528.267L303.127 528.237C303.099 528.232 303.074 528.23 303.057 528.225L303 528.218L303.022 528.143L303.072 527.973C303.072 527.971 303.072 527.968 303.074 527.966C303.132 527.736 304.571 522.054 306.617 514.269C306.802 513.571 306.991 512.856 307.186 512.125C307.6 510.549 308.036 508.906 308.488 507.218C308.57 506.906 308.655 506.592 308.74 506.275C308.895 505.697 309.052 505.111 309.209 504.525L309.231 504.438C310.244 500.68 311.309 496.778 312.372 492.983C312.696 491.828 313.021 490.682 313.343 489.552C314.575 485.221 315.78 481.144 316.863 477.721C317.247 476.504 317.616 475.369 317.965 474.337L352.434 509.978Z" fill="white"/>
<path d="M337.693 533.962C337.657 533.962 337.62 533.96 337.584 533.954C337.583 533.954 337.128 533.887 336.325 533.773L335.555 533.662C328.306 532.619 306.244 529.446 303.231 529.008L303.02 528.978L302.995 528.974C302.974 528.971 302.954 528.967 302.934 528.963L302.909 528.96C302.8 528.947 302.696 528.91 302.604 528.853C302.511 528.795 302.433 528.719 302.373 528.627C302.313 528.536 302.274 528.433 302.259 528.325C302.243 528.218 302.251 528.108 302.282 528.004L302.353 527.763C302.451 527.378 303.876 521.754 305.893 514.079C306.082 513.364 306.272 512.648 306.462 511.932C306.876 510.358 307.313 508.714 307.765 507.025C307.825 506.798 307.886 506.567 307.949 506.336L308.505 504.255C309.663 499.959 310.691 496.21 311.651 492.781C311.973 491.636 312.296 490.491 312.622 489.347C313.944 484.702 315.131 480.714 316.149 477.495C316.506 476.359 316.875 475.226 317.256 474.097C317.297 473.976 317.369 473.867 317.464 473.781C317.56 473.695 317.676 473.635 317.801 473.607C317.926 473.579 318.056 473.584 318.179 473.62C318.302 473.657 318.414 473.725 318.503 473.817L352.972 509.458C353.087 509.577 353.16 509.731 353.178 509.896C353.196 510.06 353.159 510.227 353.072 510.368C352.002 512.119 350.134 515.092 347.523 519.205C346.603 520.657 345.68 522.107 344.755 523.556C344.445 524.043 344.134 524.531 343.823 525.017L343.515 525.5C342.265 527.458 341.12 529.251 340.221 530.651L340.16 530.747C340.004 530.994 339.846 531.24 339.687 531.485C339.344 532.025 339.05 532.483 338.825 532.832L338.747 532.954C338.606 533.173 338.465 533.393 338.326 533.613C338.258 533.72 338.165 533.808 338.055 533.869C337.944 533.93 337.82 533.962 337.693 533.962ZM303.939 527.599C308.34 528.236 328.833 531.184 335.769 532.182L336.537 532.292L337.322 532.404L337.488 532.146L337.566 532.026C337.789 531.677 338.082 531.22 338.429 530.676C338.586 530.433 338.742 530.19 338.897 529.945L338.96 529.846C339.86 528.445 341.004 526.653 342.254 524.696L342.562 524.213C342.868 523.734 343.179 523.247 343.492 522.753C344.417 521.306 345.339 519.856 346.259 518.405C348.635 514.663 350.393 511.868 351.493 510.082L318.285 475.744C318.045 476.477 317.808 477.211 317.577 477.946C316.563 481.152 315.38 485.125 314.063 489.757C313.737 490.899 313.414 492.042 313.093 493.185C312.134 496.609 311.107 500.354 309.954 504.633L309.935 504.708L309.394 506.724C309.333 506.954 309.272 507.182 309.212 507.409C308.774 509.044 308.34 510.679 307.91 512.315C307.715 513.048 307.525 513.763 307.341 514.461C306.19 518.836 305.056 523.215 303.939 527.599Z" fill="#2D314C"/>
<path d="M346.891 518.805C345.976 520.249 345.038 521.725 344.125 523.153C343.705 523.814 343.289 524.465 342.885 525.098C341.635 527.056 340.49 528.848 339.592 530.247C339.405 530.541 339.227 530.821 339.06 531.077C338.671 531.688 338.349 532.19 338.117 532.551C337.613 532.703 337.047 532.865 336.431 533.032C330.606 532.195 306.475 528.724 303.339 528.267C303.277 528.232 303.209 528.203 303.142 528.18C303.119 528.17 303.097 528.163 303.074 528.158L303.022 528.143L303.072 527.973C303.072 527.971 303.072 527.968 303.074 527.966C303.132 527.736 304.571 522.054 306.617 514.269C306.802 513.571 306.991 512.856 307.186 512.125C307.6 510.549 308.036 508.906 308.488 507.218L346.891 518.805Z" fill="#D9C6F4"/>
<path d="M344.124 523.154C343.705 523.814 343.288 524.465 342.884 525.099L306.617 514.27C306.801 513.571 306.991 512.856 307.185 512.125L344.124 523.154Z" fill="white"/>
<path d="M337.693 533.962C337.657 533.962 337.62 533.96 337.584 533.954C337.583 533.954 337.128 533.887 336.325 533.773L335.555 533.662C328.306 532.619 306.244 529.446 303.231 529.008L303.02 528.978L302.995 528.974C302.974 528.971 302.954 528.967 302.934 528.963L302.909 528.96C302.8 528.947 302.696 528.91 302.604 528.853C302.511 528.795 302.433 528.719 302.373 528.627C302.313 528.536 302.274 528.433 302.259 528.325C302.243 528.218 302.251 528.108 302.282 528.004L302.353 527.763C302.451 527.378 303.876 521.754 305.893 514.079C306.082 513.364 306.272 512.648 306.462 511.932C306.876 510.358 307.313 508.714 307.765 507.025C307.825 506.798 307.886 506.567 307.949 506.336L308.505 504.255C309.663 499.959 310.691 496.21 311.651 492.781C311.973 491.636 312.296 490.491 312.622 489.347C313.944 484.702 315.131 480.714 316.149 477.495C316.506 476.359 316.875 475.226 317.256 474.097C317.297 473.976 317.369 473.867 317.464 473.781C317.56 473.695 317.676 473.635 317.801 473.607C317.926 473.579 318.056 473.584 318.179 473.62C318.302 473.657 318.414 473.725 318.503 473.817L352.972 509.458C353.087 509.577 353.16 509.731 353.178 509.896C353.196 510.06 353.159 510.227 353.072 510.368C352.002 512.119 350.134 515.092 347.523 519.205C346.603 520.657 345.68 522.107 344.755 523.556C344.445 524.043 344.134 524.531 343.823 525.017L343.515 525.5C342.265 527.458 341.12 529.251 340.221 530.651L340.16 530.747C340.004 530.994 339.846 531.24 339.687 531.485C339.344 532.025 339.05 532.483 338.825 532.832L338.747 532.954C338.606 533.173 338.465 533.393 338.326 533.613C338.258 533.72 338.165 533.808 338.055 533.869C337.944 533.93 337.82 533.962 337.693 533.962ZM303.939 527.599C308.34 528.236 328.833 531.184 335.769 532.182L336.537 532.292L337.322 532.404L337.488 532.146L337.566 532.026C337.789 531.677 338.082 531.22 338.429 530.676C338.586 530.433 338.742 530.19 338.897 529.945L338.96 529.846C339.86 528.445 341.004 526.653 342.254 524.696L342.562 524.213C342.868 523.734 343.179 523.247 343.492 522.753C344.417 521.306 345.339 519.856 346.259 518.405C348.635 514.663 350.393 511.868 351.493 510.082L318.285 475.744C318.045 476.477 317.808 477.211 317.577 477.946C316.563 481.152 315.38 485.125 314.063 489.757C313.737 490.899 313.414 492.042 313.093 493.185C312.134 496.609 311.107 500.354 309.954 504.633L309.935 504.708L309.394 506.724C309.333 506.954 309.272 507.182 309.212 507.409C308.774 509.044 308.34 510.679 307.91 512.315C307.715 513.048 307.525 513.763 307.341 514.461C306.19 518.836 305.056 523.215 303.939 527.599Z" fill="#2D314C"/>
<path d="M304.741 521.929C304.741 521.929 297.113 550.101 293.23 567.725C293.23 567.725 348.537 570.357 367.289 569.364C377.465 568.826 382.444 565.168 384.854 562.49C384.854 562.49 384.85 562.479 384.842 562.456C384.836 562.439 384.829 562.413 384.817 562.383C384.817 562.382 384.816 562.381 384.815 562.382C384.312 561.078 379.003 548.205 360.861 538.382C358.033 536.852 348.929 532.544 338.338 530.963C331.091 529.881 325.07 529.153 320.157 529.054C309.051 528.827 312.925 522.301 304.741 521.929Z" fill="white"/>
<path d="M356.063 570.333C332.63 570.333 293.66 568.494 293.195 568.472C293.086 568.467 292.979 568.438 292.883 568.387C292.786 568.337 292.702 568.266 292.636 568.179C292.57 568.093 292.523 567.993 292.5 567.886C292.476 567.78 292.476 567.67 292.499 567.564C296.341 550.124 303.942 522.015 304.019 521.733C304.11 521.395 304.421 521.169 304.775 521.182C308.865 521.368 310.247 523.037 311.583 524.653C313.022 526.392 314.51 528.19 320.172 528.305C324.584 528.395 330.05 528.968 338.448 530.222C350.399 532.007 360.145 537.143 361.217 537.723C379.335 547.533 384.847 560.409 385.495 562.067C385.502 562.081 385.508 562.096 385.514 562.111C385.53 562.152 385.542 562.188 385.551 562.215C385.601 562.345 385.614 562.486 385.589 562.622C385.565 562.759 385.503 562.886 385.41 562.99C380.596 568.34 372.92 569.815 367.328 570.111C364.374 570.268 360.495 570.333 356.063 570.333ZM294.153 567.019C301.344 567.35 350.047 569.529 367.249 568.617C376.479 568.129 381.42 565.001 383.985 562.326C382.969 559.895 377.358 548.164 360.504 539.039C359.456 538.472 349.925 533.449 338.227 531.702C329.895 530.458 324.486 529.889 320.141 529.801C313.793 529.672 312.006 527.512 310.43 525.606C309.273 524.208 308.264 522.988 305.304 522.717C304.205 526.799 297.724 550.999 294.153 567.019Z" fill="#2D314C"/>
<path d="M304.921 521.251C312.75 522.675 311.251 528.592 323.153 528.182C327.513 528.031 336.647 529.146 345.048 531.691C345.352 531.782 345.651 531.875 345.951 531.966C346.035 531.991 346.117 532.015 346.199 532.041C347.917 532.574 349.618 533.158 351.3 533.794C351.625 533.916 351.947 534.04 352.265 534.164C352.725 534.345 353.177 534.526 353.624 534.711C353.975 534.855 354.322 535.001 354.664 535.149C354.948 535.269 355.228 535.392 355.508 535.517C355.681 535.592 355.855 535.669 356.026 535.746C356.439 535.935 356.849 536.122 357.252 536.312C357.261 536.315 357.27 536.319 357.279 536.324C357.418 536.391 357.558 536.457 357.698 536.525C358.164 536.746 358.625 536.974 359.077 537.201C359.175 537.25 359.276 537.303 359.373 537.352C359.912 537.627 360.449 537.908 360.981 538.196C361.485 538.468 361.986 538.747 362.482 539.032C362.669 539.138 362.855 539.245 363.038 539.353C363.588 539.674 364.134 540.004 364.674 540.342L365.048 540.576C365.172 540.653 365.295 540.731 365.417 540.811C365.654 540.962 365.887 541.115 366.119 541.266C366.369 541.43 366.613 541.594 366.856 541.76C366.972 541.84 367.089 541.918 367.205 541.997C368.318 542.762 369.406 543.562 370.466 544.398C370.671 544.556 370.871 544.717 371.07 544.879C371.169 544.961 371.268 545.04 371.368 545.121C371.679 545.375 371.988 545.633 372.294 545.894C372.366 545.957 372.438 546.019 372.513 546.082C372.968 546.473 373.417 546.872 373.859 547.278C373.945 547.359 374.032 547.438 374.116 547.516C374.281 547.667 374.444 547.82 374.604 547.973C374.693 548.056 374.781 548.142 374.869 548.229C375.032 548.386 375.194 548.543 375.353 548.698L375.589 548.933C375.668 549.011 375.744 549.088 375.822 549.167C375.9 549.246 375.976 549.321 376.052 549.4C376.28 549.633 376.501 549.864 376.719 550.095L376.934 550.323C377.004 550.4 377.075 550.478 377.145 550.552C377.287 550.704 377.426 550.857 377.559 551.007C377.626 551.083 377.694 551.159 377.762 551.233C377.897 551.385 378.027 551.533 378.154 551.681L378.535 552.124C378.662 552.272 378.784 552.417 378.903 552.562C378.97 552.643 379.037 552.722 379.101 552.803C379.326 553.077 379.548 553.353 379.766 553.632L379.765 553.633C380.084 554.039 380.395 554.45 380.699 554.868C381.604 556.103 382.34 557.236 382.928 558.227C382.974 558.304 383.019 558.38 383.063 558.455C366.555 569.364 347.827 562.674 338.628 558.472C330.694 554.847 328.131 559.106 321.639 556.795C316.217 554.864 315.268 550.467 308.315 549.411C301.817 548.423 297.306 552.055 297.306 552.055C297.306 552.055 301.081 535.983 304.921 521.251Z" fill="#2D314C"/>
<path d="M298.687 543.53C298.576 543.457 298.495 543.346 298.459 543.217C298.423 543.089 298.434 542.952 298.491 542.831C298.548 542.71 298.647 542.614 298.769 542.56C298.891 542.507 299.028 542.498 299.156 542.538C299.204 542.552 304.078 543.986 309.648 540.41C311.176 539.429 312.481 538.22 313.743 537.049C316.368 534.615 319.084 532.097 323.815 531.678C323.889 531.669 323.964 531.675 324.036 531.695C324.108 531.716 324.174 531.75 324.232 531.797C324.29 531.844 324.338 531.902 324.373 531.968C324.408 532.034 324.43 532.106 324.436 532.18C324.443 532.254 324.434 532.329 324.411 532.4C324.388 532.471 324.351 532.536 324.302 532.593C324.254 532.649 324.194 532.695 324.127 532.727C324.06 532.76 323.987 532.779 323.912 532.783C319.559 533.168 317.1 535.449 314.497 537.863C313.199 539.066 311.858 540.309 310.247 541.344C304.221 545.212 299.043 543.664 298.826 543.596C298.777 543.581 298.73 543.559 298.687 543.53ZM272.43 479.866C275.429 470.286 291.945 472.504 309.872 490.603C327.799 508.703 352.434 509.978 352.434 509.978C384.429 461.706 432.254 369.148 335.576 292.393C288.778 290.862 227.146 244.021 227.146 244.021C193.105 335.809 315.141 347.724 314.148 410.402C303.428 436.655 276.958 464.4 272.43 479.866Z" fill="white"/>
<path d="M352.434 510.726C352.421 510.726 352.408 510.725 352.395 510.725C352.14 510.711 346.047 510.372 337.655 507.793C329.91 505.413 318.71 500.59 309.34 491.13C298.025 479.706 285.854 473.507 278.337 475.333C275.715 475.97 273.919 477.615 273.145 480.089C273.085 480.276 272.954 480.432 272.78 480.523C272.606 480.614 272.403 480.634 272.215 480.577C272.027 480.52 271.869 480.391 271.775 480.219C271.681 480.047 271.658 479.844 271.712 479.655C273.899 472.186 280.943 462.154 289.099 450.539C297.866 438.053 307.799 423.906 313.401 410.249C313.738 384.26 292.603 367.121 270.23 348.975C254.851 336.503 238.948 323.605 229.371 307.144C224.178 298.218 221.302 289.102 220.579 279.274C219.765 268.214 221.684 256.598 226.444 243.761C226.485 243.652 226.551 243.553 226.636 243.474C226.722 243.394 226.825 243.336 226.937 243.303C227.049 243.27 227.168 243.265 227.283 243.286C227.398 243.307 227.506 243.355 227.599 243.426C227.753 243.543 243.223 255.25 264.196 266.99C276.502 273.879 288.267 279.431 299.163 283.492C312.751 288.556 325.01 291.299 335.601 291.645C335.762 291.65 335.916 291.707 336.042 291.807C358.741 309.828 374.939 329.976 384.184 351.69C392.158 370.416 395.125 390.687 393.002 411.941C391.266 429.33 386.076 447.759 377.576 466.715C371.342 480.619 363.322 494.905 353.058 510.391C352.99 510.494 352.897 510.578 352.788 510.637C352.679 510.695 352.557 510.726 352.434 510.726ZM281.093 473.527C284.317 473.527 288.086 474.524 292.182 476.476C298.07 479.283 304.371 483.986 310.404 490.077C326.653 506.484 348.74 508.922 352.052 509.199C362.155 493.922 370.059 479.822 376.21 466.103C384.644 447.294 389.792 429.021 391.513 411.792C393.61 390.792 390.681 370.768 382.807 352.276C373.686 330.856 357.704 310.957 335.304 293.132C324.605 292.746 312.268 289.973 298.629 284.89C287.659 280.801 275.822 275.214 263.446 268.285C245.11 258.02 230.959 247.776 227.503 245.221C223.071 257.48 221.294 268.592 222.072 279.164C222.778 288.76 225.589 297.667 230.665 306.392C240.105 322.616 255.899 335.426 271.173 347.814C282.605 357.085 293.402 365.842 301.564 375.828C310.853 387.194 315.09 398.184 314.896 410.413C314.895 410.506 314.876 410.598 314.84 410.684C309.184 424.537 299.164 438.808 290.324 451.398C283.978 460.437 278.311 468.507 275.145 475.059C275.973 474.533 276.923 474.137 277.984 473.879C278.95 473.644 279.99 473.527 281.093 473.527Z" fill="#2D314C"/>
<path d="M352.947 183.123C353.51 183.123 353.967 182.666 353.967 182.103C353.967 181.54 353.51 181.083 352.947 181.083C352.383 181.083 351.926 181.54 351.926 182.103C351.926 182.666 352.383 183.123 352.947 183.123Z" fill="white"/>
<path d="M356.041 170.181C356.604 170.181 357.061 169.724 357.061 169.161C357.061 168.598 356.604 168.141 356.041 168.141C355.477 168.141 355.021 168.598 355.021 169.161C355.021 169.724 355.477 170.181 356.041 170.181Z" fill="white"/>
<path d="M364.352 256.883C364.226 256.883 364.102 256.851 363.992 256.79C363.906 256.743 363.83 256.679 363.769 256.602C363.708 256.526 363.662 256.438 363.635 256.344C363.607 256.25 363.599 256.151 363.609 256.053C363.62 255.956 363.65 255.861 363.698 255.775L363.699 255.772C366.551 250.601 373.23 238.491 377.954 220.228C383.57 198.513 384.548 175.492 380.869 151.745C380.19 154.414 379.141 158.221 377.822 161.999C374.466 171.613 371.15 176.287 367.685 176.287H367.682C365.551 176.285 363.629 174.543 361.807 170.959C360.058 167.519 358.381 162.272 356.815 155.346C354.376 159.448 347.805 169.428 341.63 169.428C341.307 169.428 340.985 169.401 340.665 169.344C336.226 168.556 333.286 162.642 331.677 151.265C331.062 146.919 330.499 143.153 329.926 139.811C329.889 143.63 329.518 148.161 328.542 153.342C326.622 163.531 322.737 174.128 316.995 184.84C309.831 198.205 299.738 211.79 286.996 225.218C286.858 225.356 286.672 225.434 286.477 225.437C286.282 225.439 286.094 225.365 285.952 225.231C285.811 225.097 285.727 224.913 285.719 224.718C285.711 224.524 285.78 224.333 285.91 224.188C298.532 210.887 308.531 197.44 315.628 184.222C321.3 173.66 325.141 163.22 327.047 153.193C328.741 144.28 328.559 137.348 328.108 133.103C327.731 129.559 327.11 127.247 326.841 126.361C326.795 126.217 326.749 126.075 326.702 125.932C326.64 125.745 326.654 125.542 326.741 125.365C326.829 125.189 326.982 125.054 327.168 124.989C327.354 124.925 327.558 124.937 327.735 125.021C327.913 125.106 328.05 125.258 328.117 125.443C328.137 125.499 328.218 125.727 328.335 126.121C330.305 132.361 331.564 139.777 333.16 151.056C334.625 161.414 337.311 167.229 340.927 167.871C344.389 168.485 348.392 164.47 351.143 160.993C354.225 157.095 356.448 152.975 356.47 152.934C356.543 152.799 356.655 152.689 356.792 152.62C356.928 152.551 357.083 152.525 357.235 152.547C357.386 152.568 357.528 152.636 357.64 152.74C357.752 152.845 357.829 152.981 357.861 153.131C359.591 161.219 363.166 174.788 367.684 174.791H367.685C370.319 174.791 373.415 170.078 376.404 161.519C378.77 154.747 380.259 147.876 380.273 147.807C380.31 147.637 380.404 147.485 380.54 147.378C380.676 147.27 380.846 147.212 381.02 147.216C381.194 147.219 381.361 147.283 381.493 147.396C381.624 147.509 381.713 147.665 381.742 147.836C386.148 173.086 385.361 197.568 379.404 220.603C374.633 239.049 367.89 251.275 365.01 256.495C364.945 256.613 364.85 256.71 364.734 256.779C364.618 256.847 364.486 256.883 364.352 256.883Z" fill="white"/>
<path d="M354.485 191.518C354.461 191.518 354.438 191.517 354.415 191.515C352.387 191.327 350.875 190.389 349.919 188.728C345.203 180.527 356.289 156.463 356.763 155.443C356.805 155.354 356.863 155.274 356.935 155.207C357.008 155.141 357.092 155.089 357.185 155.056C357.277 155.022 357.375 155.007 357.473 155.011C357.571 155.015 357.668 155.038 357.757 155.08C357.846 155.121 357.926 155.179 357.993 155.252C358.059 155.324 358.111 155.409 358.145 155.501C358.178 155.593 358.194 155.691 358.189 155.789C358.185 155.888 358.162 155.984 358.12 156.073C358.008 156.316 346.884 180.45 351.217 187.982C351.925 189.215 353.017 189.883 354.553 190.025C354.745 190.042 354.923 190.133 355.05 190.278C355.176 190.423 355.242 190.612 355.234 190.804C355.225 190.997 355.142 191.179 355.003 191.312C354.863 191.445 354.678 191.519 354.485 191.518Z" fill="white"/>
<path d="M406.561 84.7498C406.539 84.7523 406.514 84.7523 406.491 84.7548C404.762 84.867 402.387 85.5527 399.676 86.5825C395.515 88.1658 390.565 90.567 385.957 92.9781C385.344 93.2998 384.735 93.6214 384.136 93.9406C382.295 94.923 380.539 95.8879 378.942 96.7806C377.144 97.7854 375.55 98.7005 374.267 99.446C372.214 100.638 370.962 101.396 370.962 101.396C370.962 101.396 363.191 86.8168 358.805 83.4158C358.828 83.2263 358.848 83.0393 358.863 82.8548C359.382 77.1872 357.568 73.871 356.902 71.1681C354.332 60.7306 367.741 52.1931 376.55 60.0325C381.614 50.4004 396.647 52.3377 399.543 61.531C399.641 61.8427 399.726 62.1618 399.795 62.491C400.591 62.289 401.442 62.1195 402.335 62.0122C405.887 61.5784 410.081 62.1344 413.975 65.6551C419.723 70.8517 418.513 83.9172 406.561 84.7498Z" fill="#2D314C"/>
<path d="M339.203 126.572C341.206 124.662 350.815 114.504 354.961 105.421C355.115 105.081 355.263 104.747 355.4 104.413L355.145 104.256C355.14 104.251 355.135 104.249 355.13 104.246C350.049 101.03 344.987 94.2799 347.629 87.8469C349.34 83.6754 354.539 81.0398 358.862 82.855C359.074 82.9448 359.284 83.0445 359.491 83.1542C363.797 85.4557 364.954 88.5675 367.793 93.3773C370.43 97.8405 371.88 95.9605 375.135 91.9361C378.024 88.363 381.871 85.5155 384.585 84.0743C385.411 83.6355 386.296 83.2889 387.229 83.0271H387.232C387.232 83.0271 387.234 83.0246 387.237 83.0246C388.307 82.7204 389.44 82.5259 390.605 82.4212C394.816 82.0372 399.481 82.8126 403.42 83.8524H403.422C404.51 84.1392 405.538 84.4458 406.491 84.755C406.127 86.4406 405.805 88.1361 405.525 89.8366C405.003 92.9767 404.616 96.138 404.368 99.3116C403.939 104.443 405.745 109.113 406.798 114.045C407.377 116.758 407.628 119.7 406.441 122.209C405.635 123.825 404.37 125.167 402.804 126.066C398.515 128.622 393.334 128.181 388.609 127.45C388.14 127.375 382.889 125.974 382.385 125.597L382.382 125.595C382.357 125.577 382.345 125.56 382.345 125.547C382.285 125.729 381.215 128.911 379.955 132.97C378.875 136.454 377.595 140.912 376.749 144.341" fill="white"/>
<path d="M376.75 145.089C376.636 145.089 376.524 145.063 376.422 145.013C376.32 144.964 376.23 144.891 376.16 144.802C376.09 144.713 376.041 144.609 376.018 144.498C375.994 144.387 375.996 144.272 376.023 144.161C376.945 140.423 378.289 135.814 379.24 132.749C379.984 130.351 380.822 127.749 381.598 125.422L381.634 125.313C381.689 125.144 381.803 125 381.955 124.907C382.107 124.815 382.288 124.78 382.463 124.809C382.616 124.833 382.757 124.904 382.867 125.012C383.658 125.39 388.221 126.626 388.727 126.711C393.481 127.446 398.433 127.799 402.421 125.423C403.864 124.597 405.03 123.363 405.771 121.875C406.964 119.355 406.511 116.287 406.066 114.201C405.797 112.941 405.472 111.672 405.157 110.446C404.241 106.873 403.293 103.179 403.622 99.2491C403.873 96.0551 404.262 92.8735 404.787 89.7132C405.033 88.2238 405.31 86.7397 405.618 85.2622C404.837 85.0187 404.05 84.7921 403.259 84.5825C403.249 84.5802 403.239 84.5778 403.229 84.5753C399.948 83.7093 395.105 82.7615 390.673 83.1657C389.525 83.2689 388.45 83.4602 387.477 83.7337C387.453 83.7419 387.429 83.7489 387.405 83.7547C386.519 84.005 385.689 84.3346 384.936 84.7346C382.381 86.0915 378.617 88.8193 375.717 92.4061L375.608 92.5415C373.523 95.1199 372.146 96.8215 370.457 96.6995C369.322 96.6165 368.302 95.7089 367.149 93.7575C366.672 92.9494 366.249 92.2009 365.84 91.4771C363.849 87.9556 362.535 85.629 359.138 83.814C358.953 83.7159 358.763 83.6257 358.57 83.5437C356.836 82.8154 354.828 82.8478 352.92 83.6362C350.843 84.494 349.124 86.1743 348.322 88.1306C346.92 91.5439 347.994 94.7813 349.142 96.8958C350.546 99.4842 352.875 101.933 355.531 103.614H355.531L355.552 103.628L355.793 103.776C355.944 103.869 356.057 104.013 356.112 104.182C356.167 104.351 356.16 104.533 356.092 104.697C355.949 105.045 355.798 105.389 355.642 105.731C351.481 114.847 342.024 124.915 339.72 127.113C339.649 127.182 339.565 127.237 339.473 127.274C339.381 127.31 339.282 127.329 339.183 127.327C339.084 127.325 338.986 127.304 338.895 127.264C338.804 127.224 338.722 127.167 338.654 127.095C338.585 127.023 338.532 126.939 338.496 126.846C338.461 126.754 338.444 126.655 338.447 126.556C338.45 126.457 338.473 126.359 338.514 126.269C338.555 126.179 338.614 126.098 338.687 126.03C340.81 124.006 350.259 113.92 354.28 105.11C354.345 104.969 354.405 104.834 354.462 104.705C348.714 100.939 344.328 93.9161 346.937 87.5629C347.902 85.2108 349.874 83.2757 352.348 82.2536C354.628 81.3121 357.044 81.2799 359.153 82.1654C359.387 82.2646 359.618 82.3748 359.842 82.4932C363.624 84.5144 365.1 87.1263 367.143 90.741C367.549 91.4589 367.969 92.2011 368.438 92.997C369.28 94.4218 369.996 95.1656 370.566 95.2072C371.474 95.2818 372.784 93.6531 374.444 91.6007L374.553 91.4653C377.595 87.7038 381.548 84.8396 384.234 83.4133C385.085 82.9613 386.021 82.59 387.015 82.3102C387.021 82.3082 387.026 82.3065 387.032 82.305V82.3047C388.104 82 389.284 81.7886 390.538 81.6759C395.176 81.2533 400.186 82.2269 403.584 83.1218L403.614 83.1291C404.658 83.4049 405.695 83.7098 406.722 84.0434C406.899 84.1006 407.048 84.2212 407.14 84.3819C407.232 84.5425 407.262 84.7317 407.223 84.9129C406.862 86.5862 406.542 88.2683 406.264 89.9576C405.745 93.077 405.362 96.2174 405.115 99.37C404.806 103.053 405.681 106.463 406.607 110.074C406.925 111.315 407.255 112.599 407.53 113.889C408.02 116.188 408.511 119.584 407.118 122.528C406.236 124.296 404.876 125.738 403.177 126.714C398.793 129.327 393.529 128.967 388.495 128.189C388.288 128.156 384.568 127.217 382.791 126.578C382.064 128.776 381.357 130.98 380.67 133.192C379.726 136.237 378.391 140.812 377.476 144.519C377.436 144.682 377.343 144.826 377.211 144.929C377.08 145.032 376.917 145.089 376.75 145.089ZM383.093 125.544V125.545V125.544Z" fill="#2D314C"/>
<path d="M391.984 113.083C391.95 112.905 391.926 112.725 391.912 112.544C391.899 112.377 391.896 112.209 391.904 112.042C391.918 111.712 391.966 111.394 392.038 111.08C392.19 110.449 392.444 109.848 392.791 109.3C393.146 108.743 393.601 108.224 394.18 107.804C394.765 107.392 395.479 107.06 396.288 107.046C396.482 107.042 396.674 107.084 396.849 107.168C397.024 107.252 397.177 107.375 397.296 107.529C397.415 107.682 397.496 107.861 397.533 108.051C397.57 108.242 397.563 108.438 397.511 108.625L397.401 109.011C397.243 109.568 397.094 109.963 396.904 110.36C396.718 110.766 396.498 111.155 396.245 111.524C395.979 111.929 395.685 112.315 395.366 112.68C395.189 112.878 395.004 113.068 394.811 113.251C394.707 113.344 394.608 113.438 394.49 113.529C394.379 113.616 394.259 113.719 394.133 113.78L393.733 113.973C393.562 114.056 393.374 114.098 393.184 114.096C392.994 114.094 392.807 114.048 392.637 113.962C392.468 113.876 392.321 113.752 392.207 113.599C392.094 113.447 392.017 113.27 391.984 113.083ZM382.779 88.2929L382.898 87.8055C382.939 87.6556 382.984 87.51 383.037 87.3689C383.139 87.0878 383.26 86.8142 383.4 86.55C383.678 86.0217 384.019 85.5286 384.415 85.0814C385.245 84.1369 386.286 83.4018 387.454 82.9361C388.068 82.685 388.713 82.5192 389.372 82.4431C390.038 82.3673 390.712 82.3935 391.37 82.5207C392.015 82.6438 392.635 82.876 393.202 83.2074C393.763 83.5234 394.25 83.9549 394.632 84.4733C394.771 84.6642 394.862 84.8852 394.9 85.1183C394.937 85.3514 394.918 85.59 394.845 85.8145C394.772 86.039 394.647 86.2431 394.48 86.4101C394.314 86.5771 394.11 86.7023 393.885 86.7754L393.62 86.86C393.096 87.0275 392.665 87.1086 392.268 87.2233C391.874 87.3175 391.526 87.4312 391.203 87.52C390.561 87.715 390.004 87.874 389.382 88.0698C388.763 88.2633 388.102 88.5261 387.361 88.8238L386.195 89.3055C385.992 89.3918 385.78 89.4756 385.563 89.5609C385.073 89.7781 384.533 89.8603 383.999 89.799C383.721 89.767 383.455 89.6692 383.222 89.5135C383.07 89.4036 382.947 89.2581 382.864 89.0896C382.781 88.9212 382.741 88.7349 382.747 88.5473C382.748 88.461 382.759 88.376 382.779 88.2929ZM384.344 92.9734C385.784 92.9796 389.24 93.0751 392.654 92.1755C392.768 92.1452 392.887 92.1379 393.004 92.1539C393.12 92.1698 393.233 92.2088 393.334 92.2685C393.436 92.3282 393.525 92.4074 393.595 92.5016C393.666 92.5958 393.717 92.7031 393.746 92.8173C394.064 94.0548 394.223 96.1433 391.818 96.4577C388.863 96.8444 384.625 95.0264 383.925 93.6266C383.892 93.5565 383.877 93.4791 383.882 93.4017C383.887 93.3243 383.911 93.2494 383.953 93.1841C383.995 93.1188 384.053 93.0652 384.121 93.0283C384.189 92.9915 384.266 92.9726 384.344 92.9734ZM403.756 94.2802C402.321 94.1562 401.311 93.8303 398.824 92.9704C398.713 92.9306 398.596 92.9131 398.478 92.9187C398.36 92.9243 398.245 92.9531 398.139 93.0032C398.032 93.0534 397.937 93.1241 397.858 93.2111C397.779 93.2982 397.718 93.4 397.678 93.5107C397.25 94.7143 397.592 96.0966 399.537 96.7427C401.705 97.4623 403.447 96.1218 404.114 94.9683C404.153 94.9014 404.174 94.8258 404.176 94.7485C404.177 94.6712 404.16 94.5947 404.124 94.5261C404.088 94.4575 404.036 94.399 403.971 94.356C403.907 94.313 403.833 94.2869 403.756 94.2802ZM406.561 84.7498C406.539 84.7523 406.514 84.7523 406.491 84.7548C406.127 86.4403 405.805 88.1359 405.526 89.8364C405.042 89.5521 404.595 89.2978 404.169 89.0883C403.64 88.8265 403.166 88.6071 402.619 88.3428C402.342 88.2206 402.048 88.071 401.709 87.9314C401.37 87.7743 400.995 87.6422 400.551 87.4202L400.327 87.308C400.026 87.1565 399.794 86.8975 399.676 86.5825C399.583 86.3396 399.562 86.075 399.616 85.8206C399.67 85.5662 399.796 85.3329 399.98 85.1487C400.392 84.7373 400.888 84.4207 401.432 84.2162C401.986 83.9993 402.57 83.8771 403.163 83.8571C403.248 83.8546 403.335 83.8522 403.42 83.8522H403.423C403.942 83.8546 404.458 83.927 404.959 84.0641C405.521 84.2189 406.062 84.4508 406.561 84.7498ZM382.632 125.096C382.607 125.079 382.595 125.061 382.595 125.049C382.535 125.231 381.464 128.412 380.205 132.472C372.339 127.951 374.008 121.361 375.188 120.249C378.209 123.052 382.597 125.041 382.597 125.041C382.597 125.041 382.609 125.061 382.632 125.096Z" fill="#2D314C"/>
<path d="M287.724 223.435C287.645 223.528 284.714 227.044 284.714 227.044C289.624 229.811 312.33 241.429 336.985 249.641C339.737 250.559 342.505 251.428 345.287 252.249C347.328 252.85 349.379 253.419 351.437 253.956C353.413 254.473 355.386 254.954 357.343 255.391C357.863 255.507 358.38 255.623 358.901 255.732C360.674 256.11 362.453 256.455 364.239 256.766C366.036 257.078 367.84 257.347 369.65 257.572L366.245 269.591C366.245 269.591 357.223 301.272 357.203 301.269C355.035 300.819 352.8 300.301 350.513 299.745C341.793 297.624 332.34 294.966 323.116 293.518C322.084 293.355 321.049 293.208 320.013 293.077C288.342 289.097 256.105 284.143 236.742 270.231C213.665 253.655 206.208 222.696 219.756 191.883C220.245 190.774 220.756 189.675 221.287 188.586C222.524 186.054 223.79 184.394 225.319 181.875" fill="white"/>
<path d="M357.238 302.02C357.175 302.02 357.112 302.013 357.051 302.001C355.081 301.591 352.884 301.091 350.335 300.471C348.292 299.974 346.256 299.459 344.101 298.915C337.184 297.167 330.032 295.36 322.999 294.256C321.975 294.095 320.948 293.949 319.919 293.818C288.257 289.84 255.72 284.787 236.304 270.837C224.726 262.521 216.939 250.667 213.784 236.558C210.588 222.268 212.416 206.715 219.07 191.581C219.564 190.463 220.078 189.355 220.614 188.257C221.462 186.521 222.332 185.172 223.253 183.744C223.709 183.039 224.179 182.309 224.678 181.486C224.781 181.316 224.948 181.194 225.14 181.147C225.333 181.1 225.537 181.131 225.707 181.234C225.876 181.337 225.998 181.503 226.045 181.696C226.093 181.888 226.061 182.092 225.958 182.262C225.449 183.102 224.972 183.841 224.511 184.555C223.576 186.004 222.769 187.257 221.96 188.913C221.432 189.993 220.925 191.084 220.44 192.184C213.915 207.023 212.119 222.255 215.244 236.231C218.318 249.977 225.902 261.523 237.178 269.622C256.309 283.367 288.635 288.379 320.105 292.333C321.079 292.456 322.102 292.601 323.231 292.778C330.332 293.892 337.518 295.708 344.468 297.464C346.62 298.008 348.652 298.521 350.689 299.017C352.933 299.562 354.901 300.015 356.679 300.393C357.716 296.797 362.756 279.109 365.525 269.385L368.693 258.203C367.161 257.999 365.634 257.766 364.112 257.502C361.825 257.104 359.547 256.651 357.282 256.143L357.179 256.12C355.194 255.675 353.216 255.194 351.248 254.679C349.182 254.139 347.124 253.568 345.076 252.966C342.285 252.142 339.509 251.27 336.748 250.35C311.98 242.101 289.114 230.382 284.346 227.695C284.251 227.641 284.168 227.567 284.105 227.478C284.041 227.389 283.998 227.286 283.978 227.179C283.958 227.071 283.962 226.96 283.99 226.854C284.018 226.748 284.069 226.649 284.139 226.565C285.144 225.359 286.15 224.153 287.156 222.948C287.286 222.8 287.469 222.709 287.666 222.695C287.862 222.681 288.057 222.745 288.206 222.873C288.356 223.001 288.449 223.183 288.465 223.38C288.481 223.576 288.419 223.771 288.292 223.922C288.226 224 286.827 225.678 285.868 226.827C291.967 230.153 313.727 241.106 337.221 248.931C339.965 249.846 342.724 250.712 345.498 251.531C347.532 252.129 349.575 252.696 351.626 253.232C353.577 253.743 355.537 254.219 357.505 254.66L357.608 254.683C358.091 254.791 358.571 254.898 359.054 255C360.941 255.4 362.678 255.736 364.366 256.028C366.151 256.338 367.943 256.605 369.741 256.828C369.848 256.842 369.951 256.878 370.043 256.935C370.134 256.991 370.213 257.067 370.272 257.157C370.332 257.247 370.372 257.349 370.389 257.455C370.405 257.562 370.399 257.671 370.37 257.775L366.965 269.794C366.964 269.795 364.709 277.716 362.451 285.635C361.416 289.266 360.38 292.896 359.344 296.525C358.919 298.011 358.565 299.248 358.316 300.114C358.192 300.548 358.094 300.889 358.027 301.121C357.916 301.506 357.766 302.02 357.238 302.02Z" fill="#2D314C"/>
<path d="M284.74 227.865C284.619 227.865 284.499 227.835 284.392 227.778C284.296 227.728 274.676 222.693 265.055 220.162C264.96 220.137 264.87 220.094 264.792 220.034C264.714 219.975 264.648 219.901 264.599 219.816C264.549 219.731 264.517 219.637 264.504 219.54C264.49 219.442 264.496 219.343 264.521 219.248C264.546 219.153 264.59 219.064 264.649 218.986C264.709 218.908 264.783 218.842 264.868 218.793C264.953 218.743 265.047 218.711 265.144 218.698C265.242 218.684 265.341 218.69 265.436 218.715C275.226 221.291 284.992 226.403 285.09 226.454C285.238 226.532 285.356 226.657 285.424 226.81C285.493 226.963 285.508 227.134 285.468 227.296C285.428 227.459 285.334 227.603 285.202 227.706C285.07 227.809 284.908 227.865 284.74 227.865ZM221.282 355.222C219.453 355.222 217.909 355.134 216.664 355.062C216.146 355.032 215.675 355.005 215.252 354.988C215.054 354.98 214.867 354.894 214.732 354.748C214.597 354.602 214.526 354.409 214.534 354.211C214.538 354.112 214.561 354.016 214.602 353.926C214.643 353.837 214.701 353.757 214.774 353.69C214.846 353.623 214.931 353.572 215.023 353.538C215.115 353.504 215.214 353.489 215.312 353.493C215.743 353.51 216.222 353.538 216.75 353.568C220.146 353.764 225.829 354.09 233.434 352.296C233.625 352.256 233.823 352.293 233.988 352.397C234.152 352.502 234.269 352.667 234.314 352.856C234.359 353.046 234.328 353.246 234.228 353.413C234.128 353.58 233.966 353.701 233.778 353.752C228.759 354.936 224.563 355.222 221.282 355.222Z" fill="#2D314C"/>
<path d="M336.985 249.641C350.004 255.233 362.534 254.612 364.282 254.645C364.663 254.652 365.038 254.658 365.406 254.658C372.05 254.708 377.16 254.115 379.627 254.131C386.503 254.171 389.391 255.48 384.033 259.941C379.746 263.51 376.48 263.894 378.559 267.109C380.545 270.184 391.049 277.72 396.111 284.825C396.342 285.147 396.564 285.474 396.778 285.806C400.919 292.248 399.086 295.095 383.045 284.202C393.877 294.949 398.151 310.76 387.368 301.709C390.492 307.731 386.105 306.714 380.303 303.221C374.504 299.731 366.872 293.6 366.872 293.6C372.734 302.382 376.624 308.023 368.841 305.501C365.502 304.419 352.787 300.198 350.513 299.744C341.793 297.624 332.34 294.966 323.116 293.518" fill="white"/>
<path d="M371.76 306.85C370.958 306.85 369.922 306.637 368.61 306.212C368.062 306.034 367.262 305.772 366.296 305.456C361.728 303.961 352.224 300.848 350.366 300.478L350.336 300.471C348.293 299.974 346.257 299.46 344.102 298.915C337.185 297.167 330.032 295.36 323 294.256C322.804 294.226 322.628 294.118 322.511 293.958C322.394 293.797 322.346 293.597 322.377 293.401C322.407 293.205 322.515 293.029 322.675 292.913C322.836 292.796 323.036 292.747 323.232 292.778C330.332 293.893 337.519 295.709 344.469 297.465C346.615 298.007 348.643 298.519 350.675 299.014C352.654 299.415 361.828 302.419 366.762 304.034C367.726 304.35 368.525 304.612 369.072 304.789C371.961 305.725 372.377 305.23 372.393 305.208C372.461 305.12 372.723 304.545 371.292 301.924C370.223 299.966 368.543 297.45 366.597 294.537L366.249 294.015C366.15 293.867 366.107 293.687 366.129 293.51C366.15 293.333 366.235 293.169 366.366 293.048C366.498 292.928 366.669 292.858 366.848 292.853C367.026 292.847 367.201 292.905 367.34 293.017C367.416 293.078 375.001 299.157 380.689 302.58C385.506 305.479 387.283 305.435 387.563 305.175C387.568 305.17 388.058 304.664 386.705 302.054C386.625 301.9 386.601 301.723 386.637 301.554C386.672 301.385 386.766 301.233 386.901 301.125C387.036 301.017 387.205 300.959 387.378 300.961C387.551 300.963 387.718 301.025 387.85 301.136C390.955 303.742 392.315 303.855 392.629 303.51C393.1 302.995 393.062 300.703 391.026 296.503C389.05 292.426 385.949 288.136 382.518 284.732C382.386 284.601 382.308 284.425 382.299 284.239C382.29 284.053 382.35 283.87 382.469 283.726C382.587 283.583 382.755 283.488 382.94 283.462C383.124 283.435 383.312 283.478 383.466 283.583C396.044 292.124 397.758 290.697 397.824 290.632C398.024 290.438 398.112 289.264 396.149 286.21C395.942 285.888 395.727 285.572 395.504 285.261C392.59 281.171 387.793 276.891 383.938 273.452C381.073 270.895 378.81 268.876 377.931 267.514C376.036 264.585 377.936 263.315 380.342 261.706C381.297 261.068 382.381 260.344 383.555 259.366C386.162 257.196 386.116 256.335 386.04 256.122C385.91 255.759 385.023 254.911 379.623 254.879C378.722 254.872 377.436 254.952 375.814 255.052C373.177 255.215 369.566 255.437 365.401 255.406H365.399C365.052 255.406 364.693 255.4 364.328 255.394L364.27 255.393C364.127 255.39 363.912 255.392 363.631 255.394C353.766 255.472 344.703 253.77 336.69 250.328C336.6 250.289 336.518 250.233 336.449 250.163C336.381 250.093 336.327 250.009 336.29 249.918C336.254 249.827 336.236 249.729 336.237 249.631C336.238 249.533 336.259 249.436 336.298 249.346C336.376 249.164 336.524 249.02 336.708 248.947C336.893 248.873 337.099 248.876 337.281 248.954C345.103 252.314 353.967 253.978 363.619 253.899C363.918 253.896 364.146 253.894 364.297 253.897L364.354 253.898C364.711 253.904 365.061 253.911 365.406 253.911C369.524 253.94 373.106 253.72 375.722 253.559C377.372 253.458 378.676 253.378 379.632 253.383C384.559 253.412 386.897 254.08 387.449 255.617C387.911 256.907 386.978 258.463 384.513 260.516C383.278 261.544 382.111 262.324 381.174 262.95C378.519 264.725 378.167 265.125 379.188 266.703C379.957 267.895 382.264 269.953 384.935 272.336C388.845 275.825 393.712 280.167 396.721 284.392C396.959 284.723 397.188 285.06 397.408 285.402C399.463 288.599 399.941 290.66 398.869 291.704C397.945 292.604 395.709 293.048 387.302 287.864C392.631 294.618 395.796 302.264 393.734 304.521C392.81 305.532 391.238 305.324 389.047 303.905C389.254 304.822 389.203 305.688 388.587 306.266C387.356 307.419 384.521 306.634 379.917 303.862C376.646 301.894 372.77 299.07 370.009 296.98C373.28 301.999 374.665 304.688 373.587 306.112C373.214 306.604 372.622 306.85 371.76 306.85Z" fill="#2D314C"/>
<path d="M372.258 288.198C372.258 288.198 385.063 297.522 387.826 302.52L372.258 288.198Z" fill="white"/>
<path d="M387.827 303.268C387.693 303.268 387.562 303.232 387.446 303.164C387.331 303.096 387.236 302.999 387.171 302.882C384.52 298.086 371.944 288.895 371.817 288.802C371.736 288.745 371.668 288.672 371.616 288.588C371.563 288.504 371.528 288.411 371.512 288.313C371.496 288.215 371.5 288.115 371.523 288.019C371.546 287.923 371.588 287.832 371.646 287.752C371.704 287.672 371.778 287.604 371.862 287.553C371.947 287.502 372.041 287.468 372.139 287.453C372.237 287.438 372.337 287.443 372.433 287.467C372.529 287.491 372.619 287.534 372.699 287.593C373.227 287.978 385.67 297.073 388.481 302.158C388.544 302.272 388.577 302.4 388.575 302.53C388.573 302.66 388.537 302.788 388.471 302.9C388.405 303.012 388.311 303.105 388.198 303.169C388.085 303.234 387.957 303.268 387.827 303.268Z" fill="#2D314C"/>
<path d="M377.3 280.32C377.3 280.32 383.616 284.003 385.984 287.159L377.3 280.32Z" fill="white"/>
<path d="M385.985 287.907C385.869 287.908 385.754 287.881 385.65 287.829C385.546 287.777 385.455 287.701 385.386 287.608C383.136 284.61 376.984 281.003 376.923 280.966C376.751 280.866 376.626 280.702 376.576 280.51C376.525 280.318 376.553 280.114 376.653 279.943C376.753 279.772 376.917 279.647 377.109 279.597C377.301 279.546 377.506 279.574 377.677 279.674C377.94 279.827 384.152 283.47 386.583 286.711C386.667 286.822 386.717 286.954 386.73 287.092C386.742 287.23 386.716 287.37 386.654 287.494C386.592 287.618 386.496 287.723 386.378 287.796C386.26 287.869 386.124 287.907 385.985 287.907ZM411.316 243.899C411.153 243.9 410.995 243.847 410.866 243.75C410.736 243.652 410.641 243.515 410.596 243.359C410.551 243.203 410.558 243.037 410.615 242.885C410.673 242.734 410.779 242.605 410.916 242.518C416.313 239.122 421.253 238.303 421.461 238.27C421.865 238.203 422.253 238.482 422.318 238.89C422.349 239.086 422.302 239.286 422.185 239.447C422.069 239.608 421.894 239.716 421.698 239.747C421.65 239.755 416.839 240.56 411.714 243.784C411.595 243.86 411.457 243.9 411.316 243.899Z" fill="#2D314C"/>
<path d="M474.477 272.895C477.734 271.218 488.491 266.286 499.643 275.262L474.477 272.895Z" fill="white"/>
<path d="M499.643 276.01C499.478 276.01 499.312 275.956 499.174 275.845C489.4 267.978 479.72 271.036 474.82 273.56C474.732 273.605 474.637 273.632 474.539 273.64C474.441 273.648 474.343 273.637 474.249 273.607C474.155 273.577 474.068 273.529 473.993 273.466C473.918 273.402 473.857 273.325 473.812 273.237C473.767 273.15 473.739 273.055 473.731 272.957C473.723 272.859 473.734 272.76 473.764 272.667C473.794 272.573 473.842 272.486 473.906 272.411C473.969 272.336 474.047 272.275 474.134 272.23C483.154 267.585 492.38 268.455 500.113 274.679C500.233 274.777 500.32 274.909 500.363 275.058C500.405 275.206 500.4 275.365 500.348 275.511C500.297 275.657 500.201 275.783 500.075 275.872C499.948 275.962 499.797 276.01 499.643 276.01Z" fill="#2D314C"/>
<path d="M496.137 261.986C496.137 261.986 501.814 259.479 505.414 256.463L496.137 261.986Z" fill="white"/>
<path d="M496.137 262.735C495.966 262.735 495.8 262.676 495.667 262.568C495.533 262.46 495.441 262.309 495.406 262.141C495.37 261.974 495.394 261.799 495.472 261.646C495.55 261.493 495.678 261.372 495.834 261.303C495.89 261.278 501.459 258.802 504.933 255.89C505.085 255.762 505.282 255.7 505.479 255.718C505.677 255.735 505.86 255.83 505.987 255.982C506.115 256.134 506.177 256.331 506.159 256.528C506.142 256.726 506.047 256.908 505.895 257.036C502.256 260.086 496.675 262.567 496.44 262.671C496.344 262.713 496.241 262.735 496.137 262.735Z" fill="#2D314C"/>
<path d="M510.54 269.198C510.54 269.198 520.218 273.092 524.258 277.385L510.54 269.198Z" fill="white"/>
<path d="M524.259 278.133C524.157 278.134 524.055 278.113 523.961 278.072C523.868 278.032 523.783 277.973 523.713 277.898C519.833 273.775 510.356 269.931 510.261 269.892C510.078 269.817 509.933 269.673 509.856 269.491C509.779 269.309 509.777 269.104 509.851 268.921C509.925 268.738 510.068 268.592 510.249 268.514C510.431 268.435 510.636 268.432 510.82 268.505C511.221 268.666 520.697 272.51 524.804 276.873C524.904 276.979 524.97 277.113 524.996 277.256C525.021 277.4 525.003 277.548 524.945 277.682C524.887 277.816 524.792 277.93 524.67 278.01C524.548 278.091 524.405 278.133 524.259 278.133Z" fill="#2D314C"/>
<path d="M508.624 275.262C508.624 275.262 522.923 280.49 529.832 290.749L508.624 275.262Z" fill="white"/>
<path d="M529.832 291.497C529.71 291.497 529.589 291.467 529.48 291.409C529.372 291.352 529.279 291.268 529.211 291.166C522.515 281.224 508.508 276.016 508.367 275.964C508.275 275.931 508.19 275.879 508.118 275.813C508.045 275.746 507.987 275.666 507.945 275.577C507.904 275.488 507.88 275.391 507.876 275.293C507.872 275.195 507.887 275.097 507.921 275.005C507.955 274.913 508.007 274.828 508.073 274.756C508.14 274.683 508.22 274.625 508.309 274.583C508.398 274.542 508.494 274.519 508.593 274.515C508.691 274.51 508.789 274.526 508.881 274.559C509.474 274.776 523.489 279.99 530.453 290.331C530.528 290.443 530.572 290.574 530.579 290.71C530.587 290.845 530.557 290.98 530.493 291.1C530.429 291.22 530.334 291.32 530.218 291.39C530.101 291.46 529.968 291.497 529.832 291.497Z" fill="#2D314C"/>
<path d="M505.705 282.759C505.705 282.759 515.579 286.803 518.732 291.636L505.705 282.759Z" fill="white"/>
<path d="M518.733 292.385C518.488 292.385 518.249 292.265 518.105 292.045C515.117 287.464 505.517 283.491 505.421 283.451C505.242 283.372 505.101 283.227 505.028 283.046C504.955 282.865 504.955 282.663 505.029 282.482C505.103 282.302 505.245 282.157 505.424 282.08C505.603 282.002 505.806 281.997 505.988 282.067C506.4 282.235 516.116 286.256 519.358 291.228C519.432 291.341 519.474 291.471 519.48 291.606C519.485 291.74 519.454 291.874 519.39 291.993C519.326 292.111 519.231 292.21 519.115 292.279C519 292.348 518.867 292.385 518.733 292.385ZM362.675 99.2862C362.492 99.286 362.315 99.2188 362.178 99.0973C362.042 98.9758 361.954 98.8085 361.932 98.6269C360.961 90.5104 354.375 89.7459 354.308 89.7389C354.111 89.7184 353.93 89.6205 353.805 89.4668C353.68 89.3131 353.621 89.116 353.641 88.919C353.661 88.7219 353.759 88.5408 353.912 88.4155C354.066 88.2902 354.263 88.2309 354.46 88.2506C354.538 88.2585 362.307 89.1572 363.418 98.4489C363.431 98.554 363.421 98.6605 363.389 98.7615C363.358 98.8625 363.305 98.9556 363.235 99.0348C363.165 99.1139 363.078 99.1772 362.982 99.2206C362.885 99.2639 362.78 99.2863 362.675 99.2862Z" fill="#2D314C"/>
<path d="M393.816 67.4295C393.731 67.4295 393.645 67.4147 393.56 67.3838C393.374 67.3163 393.223 67.1777 393.139 66.9985C393.055 66.8193 393.046 66.6142 393.113 66.4281C393.14 66.3538 395.896 59.0383 405.186 60.2167C405.383 60.2417 405.562 60.3438 405.683 60.5006C405.805 60.6574 405.859 60.8562 405.834 61.053C405.809 61.2499 405.707 61.4288 405.55 61.5504C405.393 61.6719 405.194 61.7262 404.998 61.7013C396.925 60.678 394.614 66.6829 394.52 66.939C394.467 67.0828 394.371 67.2068 394.245 67.2945C394.119 67.3822 393.97 67.4293 393.816 67.4295Z" fill="white"/>
<path d="M397.812 103.452C397.637 103.452 397.468 103.391 397.334 103.28C397.199 103.168 397.108 103.013 397.076 102.841C397.044 102.67 397.073 102.492 397.158 102.34C397.243 102.187 397.379 102.069 397.542 102.006C398.944 101.465 399.351 101.034 399.444 100.768C399.603 100.317 399.12 99.4837 398.608 98.6013C396.755 95.4062 397.745 93.6456 397.864 93.4553C397.916 93.372 397.984 93.2997 398.064 93.2426C398.144 93.1855 398.235 93.1447 398.33 93.1226C398.426 93.1005 398.525 93.0975 398.622 93.1138C398.719 93.1301 398.812 93.1653 398.895 93.2175C399.061 93.3208 399.179 93.4847 399.226 93.6742C399.272 93.8637 399.243 94.0638 399.143 94.2318C399.115 94.2876 398.537 95.4945 399.903 97.851C400.593 99.0404 401.244 100.163 400.856 101.264C400.556 102.117 399.7 102.777 398.081 103.402C397.995 103.435 397.904 103.452 397.812 103.452ZM311.914 416.19C311.787 416.19 311.662 416.157 311.55 416.095C311.439 416.033 311.345 415.943 311.278 415.835C311.211 415.726 311.173 415.603 311.167 415.475C311.162 415.348 311.188 415.221 311.245 415.107C315.563 406.475 317.894 397.354 318.174 387.997C318.177 387.899 318.199 387.802 318.239 387.713C318.28 387.623 318.337 387.542 318.409 387.475C318.48 387.408 318.564 387.355 318.656 387.32C318.748 387.285 318.846 387.269 318.944 387.272C319.043 387.275 319.139 387.297 319.229 387.337C319.319 387.378 319.399 387.435 319.467 387.507C319.534 387.578 319.587 387.662 319.622 387.754C319.657 387.846 319.673 387.944 319.67 388.042C319.384 397.617 317 406.949 312.584 415.776C312.522 415.901 312.427 416.005 312.308 416.078C312.19 416.151 312.054 416.19 311.914 416.19Z" fill="#2D314C"/>
<path d="M314.493 560.272C314.596 557.92 311.422 555.87 307.403 555.694C303.385 555.519 300.043 557.283 299.941 559.636C299.838 561.989 303.012 564.038 307.03 564.214C311.049 564.39 314.39 562.625 314.493 560.272Z" fill="white"/>
<path d="M307.6 564.954C307.407 564.954 307.212 564.95 307.017 564.941C302.517 564.745 299.088 562.391 299.211 559.584C299.334 556.776 302.956 554.731 307.455 554.927C309.529 555.018 311.47 555.583 312.919 556.519C314.49 557.533 315.322 558.871 315.26 560.285C315.198 561.699 314.253 562.959 312.599 563.833C311.217 564.562 309.46 564.954 307.6 564.954ZM306.851 556.41C303.237 556.41 300.777 558.032 300.707 559.649C300.632 561.345 303.177 563.276 307.082 563.447C308.893 563.524 310.605 563.193 311.9 562.51C313.065 561.894 313.727 561.081 313.765 560.219C313.802 559.358 313.214 558.489 312.107 557.775C310.878 556.981 309.202 556.5 307.39 556.421C307.21 556.414 307.03 556.41 306.851 556.41Z" fill="#2D314C"/>
<path d="M77.5546 368.017C78.2188 364.051 76.8733 360.522 74.5494 360.133C72.2256 359.744 69.8033 362.643 69.1392 366.609C68.4751 370.574 69.8206 374.104 72.1444 374.493C74.4683 374.882 76.8905 371.982 77.5546 368.017Z" fill="white"/>
<path d="M72.5618 375.29C72.3789 375.29 72.1953 375.275 72.0117 375.244C70.6149 375.01 69.4791 373.92 68.813 372.172C68.1991 370.561 68.0497 368.546 68.3924 366.499C68.7352 364.452 69.533 362.596 70.6389 361.272C71.8381 359.837 73.2666 359.175 74.6646 359.409C76.0613 359.643 77.1972 360.734 77.8633 362.481C78.4772 364.093 78.6266 366.107 78.2839 368.154C77.5893 372.3 75.1408 375.29 72.5618 375.29ZM74.119 360.86C73.3514 360.86 72.5346 361.337 71.7877 362.231C70.8497 363.354 70.1684 364.957 69.8688 366.746C69.5692 368.535 69.6909 370.273 70.2118 371.639C70.6808 372.87 71.4078 373.626 72.2587 373.769C73.9311 374.052 76.1616 371.761 76.8073 367.907C77.1069 366.119 76.9851 364.381 76.4642 363.014C75.9952 361.783 75.2683 361.027 74.4173 360.884C74.3187 360.868 74.2189 360.86 74.119 360.86Z" fill="#2D314C"/>
<path d="M95.0848 413.639C94.6262 413.638 94.1838 413.469 93.8416 413.164C93.4994 412.859 93.2813 412.439 93.2288 411.983C92.1266 402.453 84.1848 396.799 84.1047 396.743C83.259 396.153 83.0502 394.988 83.6399 394.141C83.9225 393.735 84.3551 393.457 84.8425 393.369C85.33 393.281 85.8325 393.39 86.2396 393.672C86.6231 393.937 95.6454 400.306 96.9461 411.554C96.9765 411.816 96.951 412.082 96.8713 412.333C96.7916 412.585 96.6595 412.817 96.4837 413.014C96.3078 413.211 96.0923 413.368 95.8512 413.476C95.6101 413.584 95.3489 413.639 95.0848 413.639ZM90.4427 421.721C89.9772 421.72 89.5286 421.546 89.1846 421.233C88.8406 420.919 88.6258 420.489 88.5822 420.026C87.6234 409.855 80.0004 404.418 79.9233 404.364C79.0781 403.773 78.8683 402.609 79.4571 401.762C80.0458 400.916 81.2071 400.704 82.0546 401.29C82.4268 401.547 91.1809 407.719 92.3077 419.675C92.3322 419.934 92.3022 420.196 92.2196 420.443C92.137 420.69 92.0036 420.917 91.828 421.11C91.6524 421.303 91.4385 421.456 91.1999 421.562C90.9613 421.667 90.7034 421.721 90.4427 421.721ZM85.2572 428.994C84.7879 428.994 84.3359 428.817 83.9909 428.499C83.6459 428.181 83.4331 427.745 83.3947 427.277C82.6458 418.153 76.2207 413.326 76.1559 413.279C75.3259 412.668 75.1435 411.499 75.7517 410.667C76.3599 409.835 77.524 409.65 78.3584 410.255C78.6793 410.488 86.2302 416.08 87.124 426.971C87.1452 427.229 87.1126 427.488 87.0284 427.733C86.9442 427.978 86.8101 428.202 86.6347 428.392C86.4592 428.582 86.2462 428.734 86.0091 428.838C85.7721 428.941 85.516 428.995 85.2572 428.994ZM334.518 546.763C334.203 546.763 333.892 546.683 333.616 546.53C333.183 546.291 332.862 545.889 332.724 545.414C332.586 544.938 332.642 544.428 332.881 543.994C333.106 543.585 338.513 533.959 349.572 531.504C349.811 531.451 350.06 531.445 350.302 531.488C350.544 531.53 350.775 531.62 350.982 531.752C351.19 531.884 351.369 532.055 351.51 532.256C351.651 532.457 351.751 532.685 351.804 532.924C351.857 533.164 351.862 533.412 351.82 533.654C351.777 533.896 351.688 534.127 351.556 534.334C351.424 534.541 351.252 534.72 351.051 534.861C350.85 535.002 350.623 535.102 350.383 535.155C341.012 537.235 336.206 545.714 336.158 545.799C335.996 546.091 335.758 546.335 335.47 546.504C335.181 546.674 334.853 546.763 334.518 546.763ZM342.533 550.134C342.218 550.134 341.908 550.054 341.633 549.901C341.199 549.663 340.878 549.262 340.739 548.787C340.601 548.312 340.657 547.802 340.894 547.368C341.111 546.971 346.351 537.632 358.132 535.278C359.145 535.073 360.132 535.732 360.334 536.745C360.382 536.986 360.382 537.234 360.335 537.474C360.287 537.715 360.192 537.945 360.056 538.149C359.92 538.353 359.744 538.529 359.54 538.665C359.336 538.802 359.107 538.897 358.866 538.945C348.844 540.948 344.219 549.088 344.173 549.17C344.011 549.462 343.773 549.706 343.485 549.875C343.196 550.045 342.868 550.134 342.533 550.134ZM351.815 552.92C351.485 552.92 351.161 552.833 350.876 552.666C349.986 552.147 349.681 551.009 350.197 550.117C350.396 549.774 355.182 541.691 365.928 539.678C366.416 539.587 366.92 539.693 367.33 539.973C367.739 540.253 368.021 540.684 368.112 541.171C368.203 541.659 368.097 542.163 367.817 542.572C367.537 542.981 367.105 543.263 366.618 543.354C357.615 545.04 353.474 551.926 353.433 551.995C353.268 552.277 353.031 552.511 352.747 552.673C352.463 552.835 352.142 552.92 351.815 552.92Z" fill="#D9C6F4"/>
<path d="M376.163 143.587C376.163 143.587 367.774 154.142 357.708 152.366C348.135 150.678 340.511 138.433 339.425 127.287L345.865 120.604L377.544 138.458L376.163 143.587ZM226.437 181.382C226.437 181.382 254.901 192.429 290.66 221.298L285.915 226.888L283.727 225.737L222.424 188.516L226.437 181.382Z" fill="white"/>
</g>
<g clip-path="url(#clip1_430_815)">
<path d="M445.275 511.431C445.223 511.431 445.171 511.427 445.119 511.419C444.572 511.334 390.049 502.813 357.257 493.198C329.356 485.017 302.948 472.797 281.73 462.977C277.969 461.237 274.407 459.588 271.066 458.07C265.426 466.092 253.569 473.188 238.349 477.619C223.655 481.898 209.093 482.604 200.345 479.462C193.777 477.103 190.64 472.737 191.272 466.834C191.773 462.165 194.648 458.294 199.819 455.329C207.46 450.949 220.394 448.67 235.31 449.077C249.191 449.456 262.685 452.044 271.404 455.998C274.894 457.581 278.626 459.308 282.577 461.137C303.735 470.928 330.067 483.114 357.825 491.252C390.489 500.829 444.883 509.33 445.428 509.415C445.681 509.454 445.909 509.586 446.067 509.786C446.226 509.987 446.303 510.239 446.284 510.494C446.264 510.749 446.15 510.987 445.963 511.161C445.776 511.335 445.53 511.431 445.275 511.431ZM231.9 451.058C218.782 451.058 207.582 453.215 200.823 457.089C196.247 459.713 193.71 463.064 193.283 467.05C192.754 471.984 195.36 475.518 201.027 477.554C209.394 480.558 223.478 479.838 237.785 475.672C252.136 471.494 263.741 464.658 269.17 457.241C260.746 453.78 247.952 451.451 235.255 451.104C234.124 451.073 233.005 451.058 231.9 451.058Z" fill="#FF9F10"/>
</g>
<g clip-path="url(#clip2_430_815)">
<path d="M518.111 466.27C522.69 467.564 524.482 470.273 527.46 469.288C531.884 467.824 528.981 456.029 519.943 448.131C512.231 441.392 501.873 439.524 494.227 447.71C485.99 456.529 490.382 464.165 497.867 465.239C502.966 465.971 510.676 464.17 518.111 466.27ZM447.967 547.379C447.967 547.379 428.412 553.293 422.816 565.997C417.968 577.003 407.341 566.154 414.012 555.016C420.862 543.583 428.742 538.145 428.742 538.145L447.967 547.379ZM536.644 527.27C536.644 527.27 554.375 530.055 563.971 517.048C571.337 507.063 566.585 498.504 557.555 505.875C546.988 514.498 534.741 512.769 534.741 512.769L536.644 527.27Z" fill="#2D314C"/>
<path d="M539.493 523.751C551.795 525.72 560.898 517.105 563.605 522.274C566.211 527.25 559.859 537.849 541.708 541.719C526.7 544.918 518.088 542.211 518.088 542.211C485.81 562.69 438.618 544.427 438.618 544.427C425.332 548.365 420.917 542.799 410.323 547.134C399.497 551.564 399.251 555.502 394.822 555.502C389.608 555.502 388.206 549.223 392.117 542.702C398.76 531.626 411.799 536.303 421.395 521.535C423.279 518.636 427.735 513.734 430.738 510.862C433.336 508.376 436.279 506.339 438.89 505.25C447.736 501.567 457.672 503.404 467.333 501.355C467.589 501.302 467.844 501.247 468.096 501.189C479.475 498.628 486.055 493.758 492.745 488.416C495.489 486.236 498.06 483.847 500.434 481.27C503.027 478.48 505.305 475.412 507.227 472.123C513.76 460.73 520.669 452.722 529.242 454.124C537.324 455.444 542.558 464.924 544.29 470.681C546.984 461.793 551.236 456.451 554.776 457.803C558.316 459.154 558.431 472.216 556.125 489.344C554.783 499.315 550.808 507.867 546.72 514.332C542.435 521.113 541.109 522.315 539.493 523.751Z" fill="white"/>
<path d="M394.822 556.252C392.696 556.252 390.987 555.302 390.011 553.577C388.426 550.777 388.987 546.463 391.474 542.316C394.71 536.919 399.39 535.114 404.345 533.203C409.97 531.033 415.786 528.79 420.766 521.126C422.665 518.206 427.063 513.339 430.219 510.32C432.89 507.765 435.945 505.665 438.602 504.557C443.928 502.34 449.72 502.074 455.321 501.817C459.224 501.638 463.259 501.452 467.177 500.622C467.432 500.569 467.681 500.514 467.929 500.458C478.937 497.981 485.214 493.469 492.278 487.829C494.991 485.673 497.534 483.31 499.884 480.762C502.439 478.01 504.685 474.987 506.58 471.745C510.323 465.217 513.625 460.773 516.968 457.768C521.027 454.118 525.082 452.684 529.363 453.384C533.115 453.997 536.703 456.381 539.739 460.278C541.536 462.585 543.155 465.481 544.269 468.334C546.279 462.637 548.919 458.682 551.651 457.342C552.819 456.77 553.96 456.689 555.043 457.103C557.09 457.884 558.185 461.328 558.392 467.633C558.573 473.151 558.046 480.693 556.868 489.445C555.706 498.079 552.505 506.587 547.353 514.734C544.056 519.952 542.457 521.936 541.184 523.207C546.433 523.678 551.022 522.283 554.778 521.141C559.155 519.811 562.612 518.76 564.27 521.926C565.238 523.775 565.119 526.185 563.933 528.71C560.98 534.998 552.73 540.136 541.865 542.452C528.309 545.343 519.972 543.497 518.205 543.024C510.809 547.652 502.045 550.652 492.151 551.941C484.157 552.982 475.411 552.916 466.155 551.743C451.645 549.905 440.359 545.873 438.589 545.217C431.993 547.131 427.48 546.736 423.492 546.388C419.352 546.026 415.777 545.713 410.608 547.829C405.082 550.09 402.382 552.203 400.411 553.746C398.553 555.201 397.21 556.252 394.822 556.252ZM527.302 454.715C520.939 454.715 514.868 460.307 507.877 472.496C505.926 475.834 503.614 478.948 500.984 481.781C498.582 484.385 495.984 486.799 493.211 489.003C486.245 494.566 479.558 499.378 468.261 501.92C468.006 501.979 467.746 502.036 467.484 502.09C463.45 502.946 459.352 503.134 455.39 503.316C449.666 503.578 444.261 503.827 439.178 505.942C436.686 506.981 433.798 508.972 431.256 511.404C428.228 514.3 423.838 519.153 422.024 521.944C416.779 530.015 410.46 532.452 404.885 534.603C399.973 536.497 395.731 538.134 392.76 543.088C390.584 546.716 390.017 550.543 391.316 552.837C392.025 554.09 393.237 554.752 394.822 554.752C396.693 554.752 397.685 553.975 399.487 552.564C401.527 550.967 404.321 548.78 410.04 546.44C415.546 544.186 419.469 544.53 423.622 544.893C427.716 545.251 431.95 545.621 438.405 543.708C438.564 543.66 438.734 543.667 438.889 543.727C439.006 543.773 450.811 548.291 466.379 550.259C475.502 551.412 484.115 551.477 491.977 550.451C501.772 549.172 510.422 546.187 517.687 541.578C517.779 541.519 517.883 541.481 517.991 541.467C518.099 541.453 518.209 541.463 518.313 541.495C521.241 542.408 529.868 543.477 541.552 540.985C556.977 537.697 561.543 530.27 562.575 528.072C563.557 525.982 563.687 524.046 562.941 522.622C561.906 520.644 559.702 521.212 555.214 522.576C550.94 523.875 545.622 525.492 539.375 524.492C539.234 524.469 539.103 524.408 538.997 524.314C538.89 524.22 538.813 524.098 538.773 523.961C538.733 523.825 538.733 523.68 538.772 523.544C538.812 523.407 538.889 523.285 538.995 523.19C540.513 521.842 541.824 520.677 546.086 513.932C551.122 505.969 554.249 497.663 555.382 489.245C556.549 480.574 557.072 473.118 556.893 467.682C556.645 460.126 555.143 458.747 554.509 458.504C553.819 458.241 553.101 458.302 552.311 458.689C549.662 459.989 546.931 464.553 545.007 470.899C544.96 471.053 544.866 471.188 544.736 471.284C544.607 471.38 544.45 471.431 544.29 471.431H544.289C544.128 471.431 543.971 471.379 543.842 471.283C543.713 471.187 543.618 471.052 543.572 470.897C542.076 465.924 537.131 456.172 529.121 454.865C528.52 454.766 527.911 454.715 527.302 454.715Z" fill="#2D314C"/>
<path d="M540.916 524.897C535.66 524.897 532.223 523.121 532.061 523.035C531.885 522.942 531.753 522.783 531.694 522.593C531.635 522.403 531.654 522.197 531.747 522.021C531.84 521.846 531.999 521.714 532.188 521.655C532.378 521.596 532.583 521.615 532.759 521.707C532.806 521.732 536.971 523.863 542.972 523.3C543.07 523.291 543.169 523.301 543.263 523.33C543.358 523.359 543.445 523.406 543.521 523.469C543.597 523.532 543.66 523.609 543.706 523.697C543.752 523.784 543.78 523.879 543.789 523.977C543.807 524.175 543.747 524.373 543.62 524.526C543.493 524.679 543.31 524.776 543.112 524.794C542.382 524.863 541.649 524.897 540.916 524.897Z" fill="#2D314C"/>
<path d="M556.751 456.778C556.208 459.114 554.889 460.91 553.305 460.697C551.721 460.484 550.946 458.404 551.014 456.008C551.074 453.882 552.253 451.793 554.459 452.089C556.665 452.385 557.282 454.49 556.751 456.778ZM516.449 467.726C522.401 466.272 524.649 462.567 528.484 463.833C534.181 465.714 530.454 480.903 518.823 491.079C508.9 499.762 495.329 503.725 485.712 491.642C475.004 478.187 483.207 469.273 490.108 468.197C495.992 467.279 511.481 468.94 516.449 467.726Z" fill="#2D314C"/>
<path d="M541.892 470.482C542.138 468.648 541.276 467.019 539.967 466.844C538.658 466.668 537.397 468.012 537.151 469.846C536.905 471.679 537.767 473.309 539.076 473.484C540.386 473.66 541.646 472.316 541.892 470.482Z" fill="#2D314C"/>
<path d="M444.322 504.128C444.322 504.128 432.932 505.14 425.574 490.008C424.02 486.813 421.372 485.999 421.37 491.099C421.366 500.129 427.493 509.267 434.663 514.12L444.322 504.128Z" fill="white"/>
<path d="M434.663 514.87C434.513 514.871 434.367 514.826 434.243 514.741C430.521 512.223 427.126 508.608 424.684 504.564C422.023 500.157 420.618 495.501 420.62 491.099C420.621 487.857 421.663 486.937 422.536 486.737C423.801 486.443 425.223 487.573 426.248 489.68C433.298 504.179 444.146 503.389 444.256 503.381C444.408 503.367 444.561 503.401 444.693 503.476C444.826 503.552 444.933 503.667 444.999 503.805C445.064 503.943 445.087 504.098 445.062 504.249C445.037 504.4 444.967 504.54 444.861 504.65L435.202 514.642C435.132 514.714 435.048 514.772 434.956 514.811C434.863 514.85 434.763 514.871 434.663 514.87ZM422.94 488.192C422.915 488.192 422.893 488.194 422.872 488.199C422.612 488.258 422.12 488.942 422.12 491.1C422.115 498.937 427.207 507.912 434.567 513.141L442.605 504.825C441.346 504.698 439.514 504.347 437.408 503.431C433.855 501.885 428.8 498.359 424.899 490.336C424.167 488.831 423.333 488.192 422.94 488.192Z" fill="#2D314C"/>
<path d="M453.021 518.507C442.727 521.583 432.526 519.546 430.737 510.861C433.336 508.375 436.278 506.338 438.89 505.249C447.736 501.566 457.671 503.403 467.332 501.354C467.589 501.301 467.843 501.246 468.096 501.188C468.208 501.44 468.303 501.698 468.382 501.963C470.192 508.022 463.315 515.426 453.021 518.507ZM552.694 482.931C552.483 483.497 552.127 483.997 551.712 484.42C551.294 484.836 550.815 485.187 550.292 485.459C549.257 486.003 548.086 486.292 546.865 486.208C546.27 486.156 545.686 486.02 545.129 485.805C544.577 485.582 544.05 485.291 543.589 484.913C542.662 484.174 541.964 483.121 541.739 481.963C541.717 481.847 541.738 481.728 541.798 481.626C541.858 481.525 541.954 481.45 542.066 481.415C542.179 481.379 542.3 481.387 542.407 481.436C542.515 481.484 542.6 481.571 542.648 481.679L542.653 481.691C543.036 482.56 543.66 483.285 544.419 483.806C545.183 484.324 546.067 484.637 546.987 484.714C547.872 484.788 548.829 484.591 549.691 484.223C550.552 483.848 551.333 483.28 551.837 482.513L551.845 482.5C551.91 482.402 552.008 482.33 552.122 482.3C552.236 482.269 552.357 482.282 552.462 482.335C552.568 482.388 552.649 482.479 552.692 482.589C552.735 482.698 552.736 482.82 552.694 482.931Z" fill="#2D314C"/>
<path d="M546.353 514.91C546.353 514.91 543.78 519.101 542.783 520.314C541.435 521.954 539.566 523.749 539.566 523.749C539.566 523.749 528.59 521.568 514.383 513.321C510.093 510.831 502.05 504.155 495.675 498.619C500.116 499.853 504.799 499.166 509.269 497.246C512.151 499.801 516.126 502.891 521.262 505.956C538.375 516.165 546.353 514.91 546.353 514.91Z" fill="#FF9F10"/>
<path d="M520.447 542.69C516.689 542.195 509.669 539.723 506.604 537.547L520.447 542.69Z" fill="white"/>
<path d="M520.448 543.44C520.414 543.44 520.381 543.438 520.349 543.434C516.596 542.94 509.436 540.476 506.17 538.158C506.09 538.101 506.022 538.029 505.969 537.945C505.917 537.862 505.881 537.769 505.865 537.672C505.848 537.575 505.851 537.475 505.873 537.379C505.895 537.283 505.936 537.193 505.993 537.112C506.05 537.032 506.122 536.964 506.205 536.911C506.289 536.859 506.382 536.823 506.479 536.807C506.576 536.79 506.675 536.793 506.771 536.815C506.867 536.837 506.958 536.878 507.038 536.935C510.049 539.073 516.981 541.477 520.544 541.946C520.732 541.972 520.904 542.067 521.024 542.214C521.145 542.362 521.205 542.549 521.192 542.738C521.18 542.928 521.096 543.106 520.958 543.236C520.82 543.366 520.637 543.439 520.448 543.44ZM435.479 545.913C435.291 545.913 435.11 545.843 434.971 545.716C434.832 545.588 434.747 545.413 434.731 545.226C434.715 545.038 434.771 544.852 434.886 544.703C435.002 544.554 435.169 544.455 435.354 544.424C450.711 541.807 457.214 533.117 458.841 530.516C458.894 530.432 458.962 530.36 459.042 530.303C459.122 530.246 459.213 530.205 459.309 530.183C459.405 530.161 459.504 530.158 459.601 530.174C459.698 530.19 459.791 530.226 459.875 530.278C459.958 530.33 460.031 530.399 460.088 530.479C460.145 530.559 460.186 530.65 460.208 530.746C460.23 530.842 460.233 530.941 460.216 531.038C460.2 531.135 460.165 531.228 460.113 531.312C453.345 542.129 439.644 545.215 435.606 545.902C435.564 545.909 435.521 545.913 435.479 545.913Z" fill="#2D314C"/>
</g>
<circle cx="47" cy="59" r="40" fill="#B3CFE3"/>
<circle cx="55" cy="141" r="20" fill="#B3CFE3"/>
<circle cx="120" cy="135" r="10" fill="#B3CFE3"/>
<defs>
<clipPath id="clip0_430_815">
<rect width="475.987" height="516.672" fill="white" transform="translate(56.6592 53.664)"/>
</clipPath>
<clipPath id="clip1_430_815">
<rect width="255.091" height="62.4" fill="white" transform="translate(191.194 449.03)"/>
</clipPath>
<clipPath id="clip2_430_815">
<rect width="178.464" height="128.294" fill="white" transform="translate(389.126 442.291)"/>
</clipPath>
</defs>
</svg>
