<svg width="299" height="500" viewBox="0 0 299 500" fill="none" xmlns="http://www.w3.org/2000/svg">
<path d="M100.917 290.243C90.5835 319.91 76.2501 346.743 57.9168 370.743C39.5835 394.743 17.7501 418.743 -7.58319 442.743C-32.9165 466.743 -61.9165 472.576 -94.5832 460.243C-127.25 447.91 -154.417 431.91 -176.083 412.243C-197.75 392.576 -218.75 373.576 -239.083 355.243C-259.417 336.91 -282.417 314.076 -308.083 286.743C-333.75 259.41 -333.583 232.076 -307.583 204.743C-281.583 177.41 -264.25 147.243 -255.583 114.243C-246.917 81.2429 -225.75 63.9095 -192.083 62.2429C-158.417 60.5762 -127.75 61.5762 -100.083 65.2429C-72.4165 68.9095 -43.7499 72.9095 -14.0832 77.2429C15.5835 81.5762 46.0835 92.7429 77.4168 110.743C108.75 128.743 123.083 155.743 120.417 191.743C117.75 227.743 111.25 260.576 100.917 290.243Z" fill="#B3CFE3"/>
</svg>
