<svg width="61" height="60" viewBox="0 0 61 60" fill="none" xmlns="http://www.w3.org/2000/svg">
<path d="M20.5 42.5H33C33.7083 42.5 34.3025 42.26 34.7825 41.78C35.2608 41.3017 35.5 40.7083 35.5 40C35.5 39.2917 35.2608 38.6975 34.7825 38.2175C34.3025 37.7392 33.7083 37.5 33 37.5H20.5C19.7917 37.5 19.1975 37.7392 18.7175 38.2175C18.2392 38.6975 18 39.2917 18 40C18 40.7083 18.2392 41.3017 18.7175 41.78C19.1975 42.26 19.7917 42.5 20.5 42.5ZM20.5 32.5H40.5C41.2083 32.5 41.8017 32.26 42.28 31.78C42.76 31.3017 43 30.7083 43 30C43 29.2917 42.76 28.6975 42.28 28.2175C41.8017 27.7392 41.2083 27.5 40.5 27.5H20.5C19.7917 27.5 19.1975 27.7392 18.7175 28.2175C18.2392 28.6975 18 29.2917 18 30C18 30.7083 18.2392 31.3017 18.7175 31.78C19.1975 32.26 19.7917 32.5 20.5 32.5ZM20.5 22.5H40.5C41.2083 22.5 41.8017 22.26 42.28 21.78C42.76 21.3017 43 20.7083 43 20C43 19.2917 42.76 18.6975 42.28 18.2175C41.8017 17.7392 41.2083 17.5 40.5 17.5H20.5C19.7917 17.5 19.1975 17.7392 18.7175 18.2175C18.2392 18.6975 18 19.2917 18 20C18 20.7083 18.2392 21.3017 18.7175 21.78C19.1975 22.26 19.7917 22.5 20.5 22.5ZM13 52.5C11.625 52.5 10.4475 52.0108 9.4675 51.0325C8.48917 50.0525 8 48.875 8 47.5V12.5C8 11.125 8.48917 9.9475 9.4675 8.9675C10.4475 7.98917 11.625 7.5 13 7.5H48C49.375 7.5 50.5525 7.98917 51.5325 8.9675C52.5108 9.9475 53 11.125 53 12.5V47.5C53 48.875 52.5108 50.0525 51.5325 51.0325C50.5525 52.0108 49.375 52.5 48 52.5H13Z" fill="#FF9F10"/>
</svg>
