<svg width="177" height="406" viewBox="0 0 177 406" fill="none" xmlns="http://www.w3.org/2000/svg">
<path d="M428.917 229.243C418.584 258.91 404.25 285.743 385.917 309.743C367.584 333.743 345.75 357.743 320.417 381.743C295.084 405.743 266.084 411.576 233.417 399.243C200.75 386.91 173.584 370.91 151.917 351.243C130.25 331.576 109.25 312.576 88.9169 294.243C68.5835 275.91 45.5835 253.076 19.9169 225.743C-5.74978 198.41 -5.58312 171.076 20.4169 143.743C46.4169 116.41 63.7502 86.2429 72.4169 53.2429C81.0835 20.2429 102.25 2.90953 135.917 1.24286C169.584 -0.423808 200.25 0.576192 227.917 4.24286C255.584 7.90953 284.25 11.9095 313.917 16.2429C343.584 20.5762 374.084 31.7429 405.417 49.7429C436.75 67.7429 451.084 94.7429 448.417 130.743C445.75 166.743 439.25 199.576 428.917 229.243Z" fill="#B3CFE3"/>
</svg>
