<svg width="214" height="406" viewBox="0 0 214 406" fill="none" xmlns="http://www.w3.org/2000/svg">
<path d="M-214.917 176.757C-204.584 147.09 -190.25 120.257 -171.917 96.257C-153.583 72.257 -131.75 48.257 -106.417 24.2571C-81.0835 0.257054 -52.0835 -5.57629 -19.4169 6.75706C13.2498 19.0904 40.4165 35.0904 62.0831 54.7571C83.7498 74.4237 104.75 93.4237 125.083 111.757C145.416 130.09 168.416 152.924 194.083 180.257C219.75 207.59 219.583 234.924 193.583 262.257C167.583 289.59 150.25 319.757 141.583 352.757C132.916 385.757 111.75 403.09 78.0831 404.757C44.4164 406.424 13.7498 405.424 -13.9169 401.757C-41.5836 398.09 -70.2502 394.09 -99.9169 389.757C-129.584 385.424 -160.084 374.257 -191.417 356.257C-222.75 338.257 -237.084 311.257 -234.417 275.257C-231.75 239.257 -225.25 206.424 -214.917 176.757Z" fill="#B3CFE3"/>
</svg>
