<svg width="61" height="60" viewBox="0 0 61 60" fill="none" xmlns="http://www.w3.org/2000/svg">
<g clip-path="url(#clip0_452_253)">
<path d="M0.5 15C0.5 13.0109 1.29018 11.1032 2.6967 9.6967C4.10322 8.29018 6.01088 7.5 8 7.5H53C54.9891 7.5 56.8968 8.29018 58.3033 9.6967C59.7098 11.1032 60.5 13.0109 60.5 15V18.75H0.5V15ZM0.5 26.25V45C0.5 46.9891 1.29018 48.8968 2.6967 50.3033C4.10322 51.7098 6.01088 52.5 8 52.5H53C54.9891 52.5 56.8968 51.7098 58.3033 50.3033C59.7098 48.8968 60.5 46.9891 60.5 45V26.25H0.5ZM11.75 33.75H15.5C16.4946 33.75 17.4484 34.1451 18.1516 34.8484C18.8549 35.5516 19.25 36.5054 19.25 37.5V41.25C19.25 42.2446 18.8549 43.1984 18.1516 43.9016C17.4484 44.6049 16.4946 45 15.5 45H11.75C10.7554 45 9.80161 44.6049 9.09835 43.9016C8.39509 43.1984 8 42.2446 8 41.25V37.5C8 36.5054 8.39509 35.5516 9.09835 34.8484C9.80161 34.1451 10.7554 33.75 11.75 33.75Z" fill="#FF9F10"/>
</g>
<defs>
<clipPath id="clip0_452_253">
<rect width="60" height="60" fill="white" transform="translate(0.5)"/>
</clipPath>
</defs>
</svg>
