<svg width="624" height="624" viewBox="0 0 624 624" fill="none" xmlns="http://www.w3.org/2000/svg">
<path d="M28.2462 551.479C-21 514 5.61961 356.664 40.4645 305.421C91.6006 232.814 104.09 233.351 101.556 167.377C98.3885 84.9097 174.959 57.2229 227 50.5C327.206 37.5549 353.496 85.3472 369.683 114.773L370.025 115.394C431.687 227.45 373.98 289.286 477.61 263.291C549.68 245.212 608.188 345.393 618.464 392.826C632.158 456.029 609.749 566.269 485.755 583.3C361.762 600.331 362.616 578.697 265.5 561.5C138.991 539.098 81.9944 592.383 28.2462 551.479Z" fill="#B3CFE3"/>
<g clip-path="url(#clip0_430_662)">
<path d="M486.295 321.582C479.437 321.907 475.75 319.024 472.155 321.676C466.782 325.677 476.075 340.426 492.03 347.124C505.604 352.8 520.72 350.708 527.379 336.052C534.752 319.908 525.001 312.092 514.458 313.814C507.134 314.977 497.429 321.071 486.281 321.582H486.295Z" fill="#2D314C"/>
<path d="M583.983 483.998C583.565 504.516 572.134 520.94 550.441 529.18C534.299 535.274 504.815 531.134 498.891 521.875C492.358 511.641 514.984 506.942 520.816 507.919C494.691 504.192 472.758 486.512 468.847 474.462C468.847 474.462 468.985 475.533 469.078 477.393V477.718C469.644 486.884 469.825 512.889 455.456 524.569C445.985 532.941 435.536 531.453 434.416 526.989C433.203 522.148 441.322 512.471 440.901 499.538C440.389 482.697 435.712 462.551 430.452 441.754C426.812 427.471 422.892 412.818 419.813 398.721C417.155 386.624 415.15 374.846 414.448 364.059C412.862 339.401 415.068 321.444 419.674 316.511C420.214 315.883 420.929 315.429 421.727 315.209C423.78 314.743 425.785 315.491 427.666 317.35C431.258 320.885 434.337 328.422 435.924 338.246C439.982 329.359 450.479 315.17 463.869 314.808C466.961 314.73 470.037 315.268 472.919 316.389C479.358 318.809 485.328 323.971 490.412 331.138C492.455 334.031 494.295 337.062 495.918 340.209C497.05 342.397 498.065 344.676 499.091 347.096C505.435 362.587 504.875 375.755 513.087 392.176C515.637 397.241 518.684 402.042 522.184 406.507C525.451 410.788 529.647 414.648 534.268 418.418C534.313 418.463 534.359 418.463 534.407 418.511C539.305 422.512 544.669 426.327 550.034 430.281C550.6 430.698 551.109 431.128 551.669 431.537C552.517 432.141 553.3 432.794 554.095 433.398C554.378 433.584 554.607 433.816 554.887 434.002C555.172 434.194 555.438 434.412 555.681 434.655C562.771 440.189 569.397 446.193 574.295 453.309C574.295 453.309 574.295 453.357 574.34 453.357C574.855 454.1 575.321 454.8 575.788 455.543C575.813 455.568 575.828 455.601 575.833 455.636C575.913 455.733 575.976 455.843 576.02 455.961C579.94 462.475 582.273 469.083 583.299 475.549C583.828 478.341 584.062 481.181 583.998 484.021L583.983 483.998Z" fill="white"/>
<path d="M531.816 532.904C528.103 532.901 524.394 532.638 520.717 532.117C509.512 530.535 501.088 526.876 498.175 522.326C496.521 519.734 496.444 517.162 497.952 514.886C500.324 511.308 506.062 509.292 509.264 508.41C510.744 508.004 512.245 507.674 513.76 507.422C503.828 505.008 494.424 500.797 486.012 494.997C478.792 490.002 473.1 484.267 469.989 478.955C470.212 483.756 470.246 491.911 468.691 500.346C466.601 511.689 462.328 520.053 455.996 525.195C448.96 531.408 441.769 532.165 437.745 530.919C435.533 530.253 434.015 528.886 433.593 527.192C433.008 524.854 434.241 521.79 435.802 517.913C437.801 512.954 440.287 506.781 440.044 499.558C439.518 482.273 434.606 461.622 429.62 441.951C428.866 438.968 428.096 435.968 427.31 432.952C424.411 421.693 421.416 410.053 418.976 398.888C416.001 385.325 414.239 373.945 413.603 364.115C412.03 339.663 414.117 321.193 419.055 315.932C419.704 315.182 420.563 314.644 421.521 314.387C423.851 313.859 426.173 314.67 428.251 316.751C431.724 320.168 434.606 326.939 436.291 335.549C438.803 330.826 442.003 326.501 445.788 322.718C451.477 317.146 457.716 314.113 463.83 313.944C467.033 313.864 470.221 314.419 473.207 315.579C479.632 317.993 485.817 323.203 491.091 330.63C493.156 333.554 495.016 336.618 496.657 339.799C497.669 341.776 498.684 343.984 499.858 346.749C502.686 353.678 504.187 360.235 505.63 366.577C507.434 374.512 509.306 382.719 513.831 391.78C516.355 396.798 519.373 401.552 522.84 405.973C525.668 409.672 529.345 413.295 534.757 417.717C534.826 417.755 534.891 417.801 534.95 417.853C538.799 420.996 542.868 423.969 547.161 427.115C548.278 427.931 549.403 428.753 550.526 429.583C550.809 429.798 551.092 430.012 551.36 430.224C551.629 430.436 551.889 430.636 552.163 430.842C552.704 431.229 553.232 431.647 553.747 432.048C554.03 432.266 554.299 432.48 554.576 432.692C554.74 432.802 554.884 432.921 555.014 433.025C555.144 433.13 555.237 433.209 555.342 433.279C555.659 433.492 555.955 433.733 556.227 433.999C564.878 440.757 570.65 446.546 574.934 452.75C574.968 452.784 574.999 452.821 575.027 452.86C575.593 453.687 576.043 454.359 576.464 455.031C576.503 455.082 576.537 455.136 576.566 455.192C576.637 455.297 576.698 455.409 576.747 455.526V455.545C580.452 461.625 582.949 468.362 584.099 475.386C584.64 478.228 584.879 481.12 584.812 484.013C584.374 505.474 572.267 521.784 550.724 529.962C545.622 531.899 538.96 532.904 531.816 532.904ZM518.927 508.619C513.537 508.619 502.505 511.082 499.366 515.812C498.235 517.534 498.302 519.364 499.606 521.406C502.213 525.481 510.395 528.94 520.954 530.442C531.768 531.97 542.681 531.202 550.141 528.383C570.992 520.477 582.711 504.7 583.135 483.987C583.2 481.207 582.971 478.428 582.451 475.696C582.451 475.696 582.451 475.677 582.451 475.668C581.328 468.839 578.893 462.291 575.282 456.384C575.27 456.366 575.26 456.347 575.251 456.328C575.234 456.294 575.22 456.26 575.203 456.22L575.18 456.175C575.124 456.11 575.078 456.037 575.044 455.958C574.651 455.331 574.238 454.704 573.715 453.944C573.641 453.873 573.579 453.79 573.531 453.699C569.346 447.639 563.67 441.963 555.15 435.307L555.073 435.239C554.87 435.036 554.648 434.854 554.409 434.694C554.248 434.584 554.094 434.467 553.945 434.341C553.829 434.248 553.722 434.158 553.614 434.087L553.572 434.056C553.289 433.836 553.006 433.613 552.704 433.384C552.206 432.991 551.688 432.588 551.162 432.209C550.865 431.989 550.597 431.774 550.314 431.563C550.031 431.351 549.785 431.15 549.511 430.944C548.394 430.122 547.271 429.301 546.154 428.485C541.841 425.327 537.766 422.346 533.886 419.166C533.817 419.129 533.752 419.084 533.694 419.03C528.16 414.512 524.399 410.802 521.492 406.995C517.959 402.488 514.883 397.642 512.309 392.529C507.688 383.283 505.805 374.978 503.972 366.945C502.544 360.67 501.071 354.181 498.288 347.39C497.137 344.673 496.136 342.504 495.146 340.57C493.543 337.462 491.726 334.469 489.708 331.613C484.618 324.457 478.716 319.47 472.605 317.166C469.827 316.083 466.862 315.564 463.881 315.638C450.488 316.008 440.236 330.814 436.682 338.59C436.606 338.756 436.479 338.892 436.319 338.98C436.16 339.068 435.977 339.102 435.796 339.078C435.616 339.053 435.448 338.972 435.318 338.845C435.187 338.718 435.101 338.552 435.072 338.373C433.565 329.054 430.568 321.407 427.055 317.951C425.384 316.285 423.662 315.641 421.914 316.034C421.282 316.22 420.719 316.587 420.294 317.09C415.738 321.955 413.775 340.369 415.297 364.005C415.927 373.75 417.678 385.045 420.641 398.538C423.073 409.672 426.068 421.298 428.964 432.542C429.739 435.554 430.508 438.555 431.272 441.545C436.283 461.312 441.218 482.058 441.749 499.513C441.995 507.083 439.433 513.437 437.377 518.545C435.986 521.996 434.787 524.975 435.239 526.782C435.522 527.889 436.617 528.813 438.257 529.324C443.652 530.993 450.502 527.822 454.893 523.936L454.922 523.913C460.94 519.022 465.015 510.994 467.031 500.049C468.705 490.973 468.502 482.197 468.233 477.772C468.231 477.755 468.231 477.738 468.233 477.721V477.416C468.142 475.631 468.009 474.592 468.007 474.572C467.979 474.363 468.031 474.15 468.152 473.977C468.274 473.804 468.455 473.682 468.662 473.636C468.868 473.589 469.085 473.622 469.269 473.727C469.453 473.832 469.59 474.001 469.655 474.202C471.607 480.197 478.085 487.455 486.991 493.616C497.019 500.555 508.955 505.307 520.621 507.027C520.736 507.044 520.85 507.058 520.957 507.078C521.179 507.112 521.379 507.233 521.512 507.415C521.645 507.596 521.7 507.823 521.665 508.045C521.631 508.267 521.51 508.466 521.328 508.599C521.146 508.731 520.919 508.787 520.697 508.752L520.383 508.707C519.9 508.65 519.413 508.624 518.927 508.628V508.619Z" fill="#2D314C"/>
<path d="M422.053 358.29C422.297 359.255 422.742 360.158 423.359 360.941C423.965 361.701 424.672 362.374 425.46 362.943C426.654 363.814 428.028 364.405 429.482 364.671C430.936 364.937 432.431 364.871 433.856 364.479C434.81 364.227 435.721 363.835 436.56 363.316C438.25 362.288 439.51 360.683 440.106 358.798C440.168 358.589 440.152 358.364 440.061 358.166C439.97 357.968 439.811 357.809 439.612 357.718C439.414 357.628 439.189 357.612 438.98 357.673C438.77 357.734 438.59 357.869 438.472 358.052V358.098C437.687 359.35 436.574 360.364 435.253 361.029C434.596 361.347 433.908 361.596 433.2 361.774C432.496 361.927 431.774 361.99 431.054 361.961C429.591 361.872 428.169 361.442 426.903 360.704C425.61 359.996 424.535 358.951 423.792 357.68V357.634C423.677 357.428 423.486 357.274 423.26 357.204C423.034 357.135 422.79 357.155 422.579 357.262C422.385 357.343 422.227 357.491 422.132 357.678C422.038 357.865 422.014 358.08 422.064 358.284L422.053 358.29ZM419.114 313.568C419.488 317.443 421.213 320.653 423.834 320.653C426.456 320.653 428.119 317.488 428.537 313.568C428.924 310.137 427.465 306.509 423.834 306.509C420.203 306.509 418.786 309.765 419.114 313.568ZM488.029 343.171C480.184 336.981 479.344 329.947 472.811 329.26C463.061 328.19 458.301 353.173 468.66 376.108C477.477 395.697 494.96 410.723 517.411 399.371C542.416 386.706 536.304 367.967 526.788 361.687C518.717 356.335 502.482 357.174 488.029 343.171Z" fill="#2D314C"/>
<path d="M444.914 344.472C447.078 344.472 448.833 342.035 448.833 339.028C448.833 336.021 447.078 333.584 444.914 333.584C442.749 333.584 440.994 336.021 440.994 339.028C440.994 342.035 442.749 344.472 444.914 344.472Z" fill="#2D314C"/>
<path d="M585.245 473.765L584.823 474.183C584.357 474.649 583.845 475.112 583.378 475.578C583.196 475.72 583.024 475.876 582.864 476.044C582.632 476.23 582.445 476.416 582.21 476.608L575.027 460.278L573.673 457.254C574.411 456.944 575.128 456.587 575.819 456.184C575.867 456.136 575.912 456.136 575.961 456.09C576.006 456.09 576.006 456.042 576.054 456.042C576.566 455.76 577.185 455.393 577.827 454.972C577.872 454.927 577.966 454.879 578.014 454.834C582.445 451.857 589.209 445.947 592.569 435.99C594.436 430.501 598.632 428.733 599.565 437.015C601.107 450.135 594.475 464.37 585.245 473.77V473.765Z" fill="#2D314C"/>
<path d="M576.054 456.037C575.867 457.466 575.522 458.87 575.027 460.224C574.046 462.831 572.508 465.251 570.785 466.739C562.946 473.392 547.364 467.996 535.982 454.642C524.642 441.291 521.797 425.11 529.681 418.446C530.486 417.791 531.363 417.23 532.294 416.771C532.86 417.237 533.507 417.748 534.254 418.353C534.299 418.401 534.345 418.401 534.393 418.446C538.219 421.425 544.143 425.788 550.02 430.216C550.585 430.636 551.094 431.063 551.654 431.472C552.503 432.076 553.286 432.729 554.081 433.333C554.364 433.519 554.593 433.754 554.873 433.937C555.157 434.13 555.423 434.348 555.667 434.59C562.197 439.613 568.868 445.244 573.673 452.177V452.219C573.673 452.232 573.678 452.244 573.687 452.253C573.696 452.262 573.708 452.267 573.721 452.267C574.569 453.478 575.348 454.735 576.054 456.034V456.037ZM468.844 475.309C468.636 475.311 468.435 475.237 468.279 475.1C468.123 474.964 468.022 474.775 467.995 474.57C467.981 474.445 466.4 462.145 465.529 458.14C465.482 457.921 465.524 457.691 465.647 457.502C465.769 457.314 465.961 457.181 466.181 457.134C466.401 457.087 466.631 457.129 466.82 457.251C467.009 457.373 467.142 457.565 467.189 457.785C468.075 461.871 469.613 473.847 469.678 474.355C469.706 474.577 469.645 474.802 469.507 474.979C469.37 475.156 469.168 475.272 468.946 475.301L468.844 475.309ZM524.452 510.785C524.329 510.785 524.208 510.758 524.096 510.706C520.817 509.204 517.925 506.973 515.643 504.183C513.36 501.393 511.747 498.119 510.926 494.61C509.23 487.381 511.034 479.989 516.017 473.793C516.158 473.618 516.363 473.506 516.586 473.481C516.81 473.457 517.035 473.522 517.21 473.663C517.386 473.804 517.498 474.009 517.522 474.232C517.547 474.456 517.481 474.68 517.34 474.855C512.702 480.635 511.017 487.514 512.592 494.224C513.354 497.481 514.853 500.52 516.973 503.11C519.093 505.7 521.778 507.771 524.823 509.164C524.998 509.246 525.14 509.385 525.226 509.558C525.311 509.731 525.335 509.928 525.293 510.116C525.251 510.305 525.146 510.473 524.995 510.594C524.845 510.714 524.657 510.78 524.464 510.78L524.452 510.785Z" fill="#2D314C"/>
</g>
<g clip-path="url(#clip1_430_662)">
<path d="M418.181 446.427C424.27 445.185 464.203 437.749 466.977 443.647C469.751 449.544 438.151 462.401 438.151 462.401" fill="white"/>
<path d="M438.151 463.258C437.954 463.257 437.763 463.188 437.611 463.061C437.459 462.935 437.356 462.759 437.318 462.564C437.281 462.369 437.312 462.167 437.406 461.993C437.5 461.818 437.651 461.682 437.833 461.608C445.07 458.662 464.263 449.944 466.167 445.017C466.245 444.863 466.288 444.693 466.294 444.52C466.3 444.347 466.268 444.174 466.201 444.015C465.849 443.264 463.2 440.989 443.911 443.21C433.215 444.443 421.833 446.556 418.351 447.266C418.242 447.289 418.129 447.29 418.019 447.268C417.91 447.247 417.806 447.204 417.712 447.142C417.619 447.08 417.539 447 417.477 446.907C417.414 446.813 417.371 446.709 417.348 446.598C417.326 446.488 417.325 446.375 417.347 446.264C417.368 446.154 417.41 446.049 417.472 445.955C417.534 445.861 417.613 445.78 417.705 445.717C417.798 445.654 417.902 445.61 418.011 445.588C421.516 444.874 432.963 442.733 443.727 441.509C463.441 439.239 466.878 441.432 467.745 443.282C467.91 443.652 467.995 444.054 467.995 444.46C467.995 444.867 467.91 445.269 467.745 445.639C465.22 452.148 441.188 462.084 438.457 463.195C438.359 463.235 438.256 463.256 438.151 463.258Z" fill="#2D314C"/>
</g>
<g clip-path="url(#clip2_430_662)">
<path d="M282.563 322.767C282.563 322.767 297.149 315.101 306.634 312.008C324.573 306.16 336.386 305.701 338.704 311.678C341.677 319.3 323.232 326.676 315.42 335.305C309.676 341.692 304.577 348.631 300.195 356.021L282.563 322.767Z" fill="#F4ADA2"/>
<path d="M186.2 244.864C186.131 247.882 186.281 250.901 186.65 253.898C186.65 253.898 154.971 268.347 109.171 249.691C109.171 249.691 124.66 221.398 142.647 179.108L189.854 216.935C189.854 216.935 188.47 222.701 187.401 230.379C186.709 235.179 186.308 240.016 186.2 244.864Z" fill="white"/>
<path d="M155.647 260.07C143.477 260.07 127.33 258.001 108.853 250.473C108.744 250.428 108.645 250.36 108.563 250.275C108.481 250.189 108.418 250.087 108.378 249.975C108.338 249.863 108.322 249.743 108.331 249.624C108.34 249.506 108.374 249.39 108.431 249.285C108.586 249.004 124.112 220.54 141.865 178.779C141.915 178.659 141.992 178.553 142.09 178.468C142.187 178.383 142.303 178.322 142.428 178.289C142.554 178.258 142.686 178.257 142.813 178.285C142.941 178.312 143.06 178.369 143.162 178.449L190.383 216.282C190.504 216.383 190.594 216.515 190.644 216.664C190.693 216.813 190.7 216.973 190.664 217.126C190.664 217.185 189.277 222.946 188.228 230.489C187.537 235.254 187.138 240.058 187.032 244.872C186.965 247.848 187.112 250.825 187.474 253.78C187.498 253.959 187.463 254.141 187.375 254.299C187.288 254.457 187.152 254.583 186.987 254.658C186.661 254.81 178.782 258.347 165.152 259.625C162.35 259.904 159.163 260.07 155.647 260.07ZM110.356 249.263C133.423 258.482 152.732 259.093 164.93 257.959C176.278 256.904 183.704 254.185 185.747 253.366C185.435 250.54 185.309 247.696 185.37 244.853C185.476 239.969 185.88 235.096 186.579 230.261C187.46 223.948 188.563 218.863 188.926 217.264L142.988 180.464C127.063 217.788 113.022 244.31 110.356 249.263Z" fill="#2D314C"/>
<path d="M187.401 230.379C186.709 235.179 186.308 240.016 186.2 244.864C184.638 245.5 182.247 245.145 178.644 243.088C164.066 234.823 167.166 218.691 170.038 217.211C176.711 226.813 186.259 230.024 187.401 230.379ZM256.392 130.164C253.261 125.692 247.016 121.603 239.365 121.772C243.193 99.8204 217.515 88.7095 206.809 101.484C196.358 79.5321 164.53 90.4516 163.515 109.927C163.144 117.078 160.741 133.752 155.056 143.453C161.492 151.536 165.183 176.87 165.183 176.87C165.183 176.87 214.297 151.058 229.884 157.204C254.406 166.874 264.649 141.92 256.392 130.164Z" fill="#2D314C"/>
<path d="M226.779 125.554C226.602 125.555 226.429 125.5 226.285 125.397C226.142 125.294 226.034 125.148 225.977 124.98C225.921 124.813 225.918 124.631 225.97 124.462C226.022 124.293 226.126 124.144 226.267 124.037C230.658 120.697 236.145 119.131 241.638 119.65C244.154 119.839 246.624 120.434 248.952 121.412C249.152 121.508 249.306 121.679 249.381 121.888C249.456 122.097 249.445 122.327 249.352 122.529C249.258 122.73 249.089 122.887 248.881 122.964C248.673 123.042 248.442 123.034 248.24 122.943C248.13 122.892 237.086 117.919 227.285 125.383C227.139 125.493 226.962 125.554 226.779 125.554ZM141.708 181.295C128.14 177.571 120.773 156.475 129.893 143.732C135.102 136.465 146.045 135.008 153.503 140.127C161.163 145.376 163.174 152.138 166.196 162.154C169.611 173.476 174.916 167.89 181.78 160.919C186.18 156.444 191.21 151.395 196.777 149.892C209.363 146.49 229.873 157.21 229.873 157.21C229.873 157.21 228.658 160.024 227.369 163.657C225.682 168.47 223.853 174.732 224.573 177.864C225.842 183.363 229.319 184.117 228.188 186.819C227.22 189.132 223.426 190.734 221.417 191.263C215.177 207.231 228.281 212.184 223.333 225.068C221.214 230.59 215.779 234.811 208.764 235.343C198.845 236.095 188.937 232.017 181.952 228.133C177.879 225.882 173.403 222.141 170.19 218.789" fill="white"/>
<path d="M206.426 236.264C200.673 236.264 192.22 234.794 181.55 228.865C177.78 226.768 173.198 223.129 169.591 219.364C169.511 219.284 169.447 219.19 169.404 219.086C169.361 218.981 169.339 218.869 169.34 218.756C169.341 218.644 169.364 218.532 169.409 218.428C169.453 218.325 169.518 218.231 169.6 218.153C169.681 218.075 169.778 218.014 169.883 217.974C169.988 217.933 170.101 217.915 170.214 217.919C170.326 217.923 170.437 217.949 170.539 217.997C170.642 218.044 170.733 218.112 170.809 218.196C174.306 221.854 178.737 225.369 182.368 227.387C188.94 231.046 198.845 235.239 208.707 234.491C215.13 234.006 220.435 230.269 222.553 224.759C224.773 218.981 223.147 214.827 221.428 210.428C219.459 205.393 217.225 199.683 220.641 190.945C220.688 190.822 220.764 190.712 220.861 190.623C220.959 190.535 221.076 190.47 221.203 190.435C223.172 189.915 226.616 188.381 227.412 186.495C227.789 185.589 227.479 185.088 226.52 183.782C225.628 182.561 224.404 180.892 223.752 178.055C223.133 175.362 224.081 170.423 226.565 163.379C227.462 160.846 228.334 158.69 228.782 157.612C225.125 155.814 207.832 147.762 196.994 150.706C191.561 152.175 186.47 157.35 182.365 161.513L182.126 161.758C177.673 166.289 173.828 170.201 170.384 169.356C168.235 168.827 166.643 166.618 165.374 162.402L165.335 162.273C162.381 152.397 160.429 145.882 153.033 140.825C149.493 138.457 145.197 137.493 140.985 138.123C136.644 138.759 132.953 140.923 130.576 144.224C126.357 150.135 125.513 158.372 128.309 166.291C130.877 173.541 135.963 178.846 141.919 180.478C142.026 180.508 142.126 180.558 142.213 180.626C142.301 180.694 142.374 180.779 142.429 180.875C142.484 180.972 142.519 181.078 142.533 181.188C142.547 181.298 142.539 181.41 142.509 181.517C142.48 181.624 142.43 181.724 142.362 181.812C142.294 181.899 142.209 181.973 142.113 182.027C142.016 182.082 141.91 182.118 141.8 182.131C141.69 182.145 141.578 182.137 141.471 182.108C134.996 180.326 129.485 174.63 126.728 166.857C123.738 158.414 124.669 149.589 129.217 143.239C134.633 135.683 145.975 133.952 153.987 139.432C161.864 144.827 164.004 151.938 166.972 161.78L167.012 161.91C168.064 165.396 169.341 167.35 170.812 167.713C173.321 168.332 177.023 164.563 180.939 160.573L181.181 160.328C185.415 156.022 190.684 150.664 196.56 149.071C201.942 147.616 209.262 148.423 218.317 151.469C222.412 152.851 226.405 154.518 230.267 156.458C230.456 156.557 230.6 156.724 230.671 156.925C230.742 157.126 230.734 157.346 230.65 157.542C230.65 157.57 229.429 160.356 228.168 163.936C225.85 170.485 224.869 175.362 225.398 177.673C225.96 180.169 227.035 181.613 227.884 182.778C228.838 184.081 229.738 185.311 228.97 187.143C227.924 189.642 224.314 191.285 222.056 191.958C219.096 199.855 221.077 204.918 222.995 209.82C224.756 214.323 226.579 218.981 224.12 225.369C221.766 231.502 215.906 235.644 208.828 236.182C208.094 236.244 207.292 236.264 206.426 236.264Z" fill="#2D314C"/>
<path d="M196.344 155.873L196.769 155.054C196.909 154.803 197.05 154.561 197.21 154.331C197.517 153.87 197.854 153.431 198.22 153.016C198.949 152.185 199.773 151.442 200.676 150.804C202.57 149.452 204.752 148.557 207.05 148.19C209.499 147.764 212.018 148.057 214.303 149.034C215.422 149.52 216.451 150.191 217.346 151.021C218.232 151.82 218.94 152.796 219.425 153.886C219.709 154.532 219.724 155.264 219.468 155.922C219.213 156.579 218.706 157.108 218.061 157.393C217.747 157.532 217.409 157.609 217.065 157.618H216.671C214.685 157.663 213.296 157.618 212.004 157.691C211.374 157.691 210.778 157.761 210.19 157.789C209.602 157.818 209.008 157.863 208.389 157.916C207.155 158.023 205.815 158.243 204.327 158.504L201.99 158.94C201.585 159.019 201.163 159.092 200.735 159.166C200.521 159.205 200.302 159.236 200.082 159.27C199.874 159.309 199.662 159.326 199.449 159.32L197.843 159.008C197.278 158.895 196.781 158.563 196.461 158.084C196.141 157.605 196.024 157.018 196.136 156.453C196.178 156.251 196.248 156.056 196.344 155.873ZM202.766 167.749C205.436 168.053 211.827 168.926 218.368 167.932C218.585 167.899 218.806 167.909 219.019 167.962C219.233 168.016 219.433 168.112 219.608 168.245C219.783 168.377 219.93 168.544 220.04 168.734C220.15 168.925 220.22 169.135 220.247 169.353C220.551 171.729 220.368 175.666 215.836 175.767C210.263 175.897 202.817 171.644 201.838 168.886C201.793 168.747 201.784 168.599 201.811 168.456C201.839 168.313 201.901 168.179 201.993 168.066C202.086 167.953 202.205 167.865 202.34 167.809C202.475 167.754 202.621 167.733 202.766 167.749ZM210.719 203.637C209.765 203.972 208.75 204.1 207.742 204.012C206.757 203.929 205.79 203.694 204.876 203.316C203.01 202.567 201.399 201.297 200.234 199.658C199.673 198.825 199.231 197.918 198.923 196.962C198.626 196.005 198.473 195.009 198.47 194.007C198.444 192.005 199.118 190.057 200.375 188.499C200.514 188.333 200.71 188.224 200.924 188.191C201.138 188.159 201.357 188.205 201.54 188.323C201.722 188.44 201.856 188.62 201.915 188.828C201.975 189.037 201.956 189.26 201.863 189.456V189.484C201.204 190.865 200.927 192.398 201.061 193.922C201.197 195.417 201.71 196.854 202.552 198.096C203.434 199.319 204.598 200.31 205.945 200.986C207.272 201.708 208.778 202.035 210.286 201.929H210.316C210.532 201.908 210.747 201.966 210.923 202.092C211.099 202.218 211.222 202.403 211.272 202.614C211.321 202.824 211.292 203.046 211.19 203.237C211.088 203.427 210.921 203.575 210.719 203.651V203.637ZM150.982 170.69H150.968C150.858 170.688 150.748 170.665 150.646 170.621C150.545 170.576 150.453 170.513 150.376 170.433C150.299 170.353 150.238 170.259 150.197 170.156C150.157 170.053 150.137 169.943 150.139 169.832C150.251 163.159 148.223 157.933 144.11 154.3C142.303 152.678 140.157 151.481 137.828 150.796C137.61 150.745 137.421 150.61 137.303 150.419C137.184 150.229 137.146 150 137.197 149.781C137.248 149.563 137.383 149.374 137.573 149.255C137.763 149.137 137.993 149.099 138.211 149.15C138.354 149.183 141.767 149.994 145.162 152.974C148.285 155.71 151.978 160.854 151.826 169.86C151.823 170.081 151.732 170.293 151.574 170.448C151.416 170.603 151.204 170.69 150.982 170.69ZM147.28 182.282C142.521 182.282 137.384 180.822 134.481 178.503C134.311 178.361 134.204 178.159 134.181 177.94C134.159 177.72 134.223 177.5 134.361 177.328C134.499 177.155 134.698 177.043 134.917 177.016C135.137 176.989 135.357 177.049 135.533 177.183C138.65 179.671 144.943 181.095 149.863 180.425C150.087 180.395 150.313 180.455 150.493 180.592C150.673 180.729 150.791 180.931 150.821 181.155C150.851 181.379 150.791 181.606 150.654 181.786C150.517 181.965 150.315 182.083 150.091 182.113C149.159 182.233 148.22 182.289 147.28 182.282Z" fill="#2D314C"/>
<path d="M266.745 304.949C256.516 315.785 163.186 366.864 154.541 371.688C158.834 374.905 162.716 378.637 166.1 382.802C171.628 389.533 176.489 397.171 178.905 405.552C186.239 430.971 153.79 457.851 149.97 459.905C179.44 462.719 217.332 445.803 244.538 426.021C281.42 399.212 301.908 350.144 315.406 331.781L266.745 304.949Z" fill="white"/>
<path d="M156.513 461.05C154.238 461.05 152.03 460.948 149.888 460.744C149.708 460.726 149.538 460.651 149.404 460.53C149.269 460.409 149.177 460.247 149.142 460.069C149.106 459.892 149.128 459.707 149.206 459.544C149.283 459.38 149.411 459.245 149.57 459.159C152.788 457.431 185.319 430.825 178.095 405.786C175.985 398.469 171.85 391.135 165.436 383.336C162.098 379.223 158.267 375.537 154.029 372.36C153.918 372.276 153.829 372.166 153.77 372.039C153.712 371.912 153.686 371.772 153.695 371.633C153.704 371.493 153.748 371.358 153.822 371.24C153.896 371.121 153.998 371.023 154.119 370.953C154.91 370.511 156.403 369.684 158.479 368.539C203.396 343.714 258.522 312.43 266.131 304.37C266.26 304.233 266.43 304.144 266.614 304.115C266.799 304.086 266.989 304.119 267.152 304.209L315.819 331.041C315.925 331.098 316.018 331.177 316.091 331.273C316.164 331.369 316.215 331.48 316.242 331.597C316.268 331.715 316.27 331.837 316.245 331.955C316.221 332.073 316.171 332.185 316.1 332.282C312.502 337.179 308.364 344.338 303.576 352.627C290.321 375.566 272.168 406.985 245.064 426.705C230.717 437.118 214.173 446.188 198.437 452.225C183.229 458.045 168.899 461.05 156.513 461.05ZM152.414 459.244C165.473 460.006 181.108 457.051 197.801 450.646C213.402 444.666 229.825 435.677 244.04 425.337C270.869 405.828 288.92 374.589 302.097 351.782C306.668 343.874 310.643 336.99 314.162 332.06L266.902 305.996C259.487 313.094 223.31 334.635 159.304 370.016L156.083 371.798C160.017 374.878 163.594 378.389 166.747 382.267C173.299 390.243 177.541 397.785 179.713 405.319C183.651 419.01 176.224 432.823 169.304 442C163.281 449.954 156.142 456.401 152.414 459.244Z" fill="#2D314C"/>
<path d="M225.004 403.391C225.004 403.391 214.477 383.733 207.408 364.191C260.775 289.82 310.218 280.73 348.53 287.841C365.409 290.968 356.604 296.982 349.093 298.752C378.115 308.602 355.982 312.86 352.103 312.86C358.854 316.857 362.669 320.597 360.607 322.454C358.033 324.776 336.58 319.573 336.58 319.573C331.829 323.231 321.547 327.185 320.826 327.484" fill="white"/>
<path d="M225.004 404.235C224.851 404.236 224.701 404.195 224.569 404.116C224.438 404.038 224.331 403.925 224.258 403.791C224.154 403.594 213.622 383.848 206.609 364.478C206.562 364.349 206.548 364.21 206.567 364.074C206.586 363.938 206.638 363.809 206.718 363.698C219.476 345.92 232.703 330.965 246.026 319.252C258.139 308.605 270.669 300.34 283.269 294.691C304.305 285.263 325.702 282.75 348.685 287.011C355.594 288.292 358.981 290.166 359.045 292.744C359.079 294.216 357.94 295.696 355.748 297.03C354.517 297.76 353.215 298.362 351.861 298.826C361.062 302.177 365.141 305.161 364.649 308.146C364.112 311.403 358.221 312.889 354.66 313.437C358.241 315.745 361.774 318.599 362.013 320.98C362.057 321.371 362.005 321.767 361.86 322.134C361.716 322.5 361.485 322.826 361.186 323.082C360.294 323.887 357.934 324.571 347.495 322.716C342.712 321.872 338.121 320.802 336.782 320.487C332.762 323.448 325.471 326.549 321.412 328.162L321.15 328.263C320.945 328.339 320.718 328.332 320.518 328.244C320.318 328.155 320.16 327.993 320.077 327.791C319.994 327.588 319.993 327.361 320.074 327.158C320.155 326.955 320.312 326.791 320.511 326.701L320.793 326.591C327.854 323.777 333.286 321.059 336.085 318.906C336.185 318.829 336.3 318.775 336.423 318.749C336.547 318.723 336.674 318.724 336.796 318.754C336.85 318.754 342.206 320.059 347.801 321.056C358.232 322.908 359.844 322.024 360.061 321.83C360.163 321.75 360.243 321.645 360.293 321.525C360.342 321.405 360.359 321.274 360.342 321.146C360.216 319.888 357.878 317.242 351.695 313.589C351.534 313.496 351.409 313.351 351.339 313.179C351.269 313.007 351.257 312.817 351.307 312.638C351.356 312.458 351.462 312.3 351.61 312.188C351.758 312.076 351.939 312.015 352.125 312.016C354.657 312.016 362.584 310.344 362.992 307.874C363.155 306.869 362.109 304.046 348.845 299.552C348.672 299.493 348.522 299.379 348.419 299.228C348.316 299.076 348.264 298.896 348.273 298.712C348.281 298.529 348.349 298.354 348.466 298.213C348.583 298.072 348.743 297.973 348.921 297.931C353.54 296.841 357.408 294.483 357.36 292.786C357.36 292.209 356.657 290.205 348.381 288.672C325.747 284.475 304.674 286.949 283.961 296.234C271.516 301.812 259.127 309.984 247.14 320.521C234.003 332.06 220.953 346.807 208.35 364.323C215.318 383.438 225.642 402.797 225.746 402.994C225.852 403.192 225.875 403.423 225.81 403.637C225.745 403.851 225.598 404.031 225.4 404.137C225.278 404.202 225.142 404.235 225.004 404.235Z" fill="#2D314C"/>
<path d="M301.098 315.934C300.909 315.933 300.725 315.869 300.577 315.752C300.429 315.634 300.324 315.47 300.28 315.286C300.236 315.102 300.255 314.909 300.334 314.737C300.413 314.565 300.547 314.424 300.716 314.338C319.091 304.98 334.886 299.611 349.008 297.914C349.232 297.887 349.457 297.951 349.634 298.09C349.811 298.23 349.925 298.434 349.952 298.658C349.978 298.882 349.915 299.107 349.775 299.284C349.636 299.461 349.432 299.576 349.208 299.602C335.289 301.274 319.67 306.59 301.481 315.855C301.361 315.911 301.23 315.938 301.098 315.934ZM352.117 313.705C336.518 313.705 331.935 310.707 331.747 310.578C331.655 310.516 331.575 310.436 331.514 310.342C331.453 310.249 331.41 310.145 331.389 310.036C331.368 309.926 331.368 309.814 331.391 309.704C331.413 309.595 331.457 309.491 331.519 309.399C331.581 309.306 331.661 309.227 331.755 309.166C331.848 309.104 331.952 309.062 332.061 309.041C332.171 309.019 332.283 309.02 332.392 309.042C332.502 309.065 332.605 309.108 332.698 309.171C332.698 309.171 333.806 309.886 336.746 310.578C339.455 311.225 344.322 311.985 352.117 311.985C352.34 311.985 352.555 312.074 352.713 312.232C352.872 312.391 352.961 312.606 352.961 312.829C352.961 313.053 352.872 313.268 352.713 313.426C352.555 313.585 352.34 313.674 352.117 313.674V313.705Z" fill="#2D314C"/>
<path d="M320.734 524.673C289.986 418.912 279.479 381.344 250.448 327.388C222.247 274.929 187.336 252.736 187.336 252.736C133.963 263.762 110.581 245.373 110.581 245.373C110.581 245.373 31.7434 297.334 26.6545 522.017C26.6545 522.017 66.941 532.658 154.547 532.646C196.251 532.644 320.734 524.673 320.734 524.673Z" fill="#FF9F10"/>
<path d="M132.298 413.635C114.013 419.846 89.8199 431.531 90.4557 440.154C91.0887 448.85 125.279 476.642 251.174 398.731C251.18 398.731 228.334 381.02 132.298 413.635Z" fill="#2D314C"/>
<path d="M244.226 387.724C244.226 387.724 176.323 265.712 138.008 268.147C75.3522 272.126 120.432 420.333 123.299 428.092L123.408 428.374C139.643 472.069 177.803 523.016 240.203 522.301C288.929 506.803 266.646 423.19 266.646 423.19L244.226 387.724Z" fill="white"/>
<path d="M238.914 523.165C224.716 523.22 210.653 520.394 197.576 514.86C185.558 509.752 174.227 502.269 163.911 492.627C146.577 476.422 131.91 453.714 122.612 428.689L122.503 428.407C121.467 425.593 112.938 398.168 107.874 366.853C104.988 348.937 103.739 333.076 104.167 319.674C104.707 303.033 107.866 290.157 113.554 281.399C119.203 272.712 127.409 267.967 137.947 267.297C146.926 266.734 158.164 272.743 171.338 285.182C181.778 295.032 193.494 308.943 206.162 326.521C227.471 356.088 244.42 386.333 244.943 387.282L267.338 422.742C267.385 422.813 267.42 422.891 267.442 422.973C267.498 423.184 273.04 444.258 272.525 466.955C272.224 480.337 269.906 491.67 265.645 500.642C260.272 511.942 251.796 519.498 240.45 523.109C240.371 523.135 240.289 523.148 240.206 523.148C239.784 523.162 239.351 523.162 238.914 523.165ZM139.148 268.954C138.782 268.954 138.419 268.954 138.062 268.988C128.087 269.624 120.32 274.11 114.978 282.328C109.458 290.816 106.392 303.399 105.863 319.73C105.43 333.016 106.67 348.777 109.548 366.566C114.592 397.748 123.051 425.016 124.092 427.799L124.199 428.081C133.409 452.866 147.922 475.361 165.07 491.377C175.245 500.893 186.408 508.263 198.243 513.298C211.343 518.865 225.423 521.609 240.068 521.46C250.884 517.987 258.978 510.743 264.12 499.93C268.283 491.18 270.545 480.084 270.846 466.949C271.341 445.383 266.303 425.298 265.85 423.533L243.514 388.166L243.489 388.126C243.32 387.819 226.281 357.31 204.792 327.495C192.189 310.01 180.543 296.183 170.19 286.406C157.897 274.819 147.472 268.954 139.148 268.954Z" fill="#2D314C"/>
<path d="M251.18 398.73C228.227 391.349 171.254 398.829 130.348 413.928C113.45 420.164 97.6966 428.241 92.8103 435.235C91.685 436.842 91.1449 438.392 91.2884 439.85C91.2884 439.802 91.2237 439.49 91.1337 438.944C90.5035 435.176 58.8843 283.144 126.472 265.583C169.647 254.374 203.663 281.157 251.18 398.73Z" fill="#FF9F10"/>
<path d="M91.2265 441.257C89.8931 439.42 85.1671 416.894 83.0094 389.739C81.0234 364.708 80.683 329.2 90.3516 302.214C97.7135 281.67 109.799 269.061 126.272 264.784C137.761 261.801 148.074 261.688 157.801 264.398C168.303 267.342 178.194 273.595 188.04 283.516C208.488 304.116 228.95 340.781 252.437 398.902C252.488 399.03 252.508 399.168 252.494 399.305C252.479 399.442 252.432 399.573 252.355 399.687C252.279 399.802 252.176 399.896 252.054 399.961C251.933 400.026 251.798 400.061 251.661 400.062L248.623 400.081V398.393H250.417C227.215 341.164 207.003 305.025 186.841 284.723C177.195 274.983 167.549 268.873 157.334 266.011C147.902 263.368 137.876 263.498 126.672 266.402C111.481 270.342 100.122 281.7 92.8975 300.151C82.5425 326.606 82.6353 362.449 84.5369 387.862C86.6833 416.568 91.5697 438.713 92.5768 440.272L91.2265 441.257ZM181.859 505.576C220.596 529.047 248.53 528.523 293.567 528.526C338.296 528.526 393.393 513.807 432.74 512.091C444.943 511.559 451.776 513.183 463.122 516.782C482.158 522.824 480.307 514.463 459.425 500.994C460.446 501.45 507.994 522.611 491.917 502.846C491.917 502.846 515.139 510.278 491.452 488.442C486.108 483.52 476.591 476.36 471.018 472.643C487.93 480.019 511.887 482.4 487.736 465.21C487.264 464.875 486.788 464.54 486.33 464.211" fill="white"/>
<path d="M288.223 529.371C267.318 529.371 250.564 529.269 234.082 526.497C215.583 523.385 199.34 517.154 181.423 506.296C181.326 506.24 181.242 506.164 181.174 506.075C181.107 505.985 181.058 505.883 181.03 505.775C181.002 505.666 180.997 505.553 181.013 505.442C181.03 505.331 181.068 505.225 181.126 505.129C181.184 505.033 181.261 504.95 181.352 504.884C181.442 504.818 181.545 504.771 181.654 504.745C181.763 504.719 181.876 504.715 181.987 504.734C182.097 504.752 182.203 504.793 182.298 504.852C200.02 515.595 216.083 521.758 234.363 524.834C251.34 527.693 268.683 527.688 290.67 527.685H293.584C318.34 527.685 346.147 523.182 373.04 518.831C394.701 515.327 415.15 512.018 432.704 511.249C444.64 510.731 451.523 512.22 463.366 515.98C472.008 518.724 474.987 518.02 475.387 517.173C476.093 515.673 472.292 510.315 458.955 501.695C458.771 501.582 458.637 501.403 458.581 501.194C458.525 500.985 458.551 500.763 458.654 500.573C458.757 500.383 458.928 500.24 459.134 500.172C459.339 500.105 459.562 500.119 459.757 500.212C460.601 500.589 468.25 503.974 476.315 506.766C491.064 511.874 493.72 510.298 494.181 509.693C494.505 509.271 494.865 507.81 491.25 503.366C491.135 503.225 491.069 503.051 491.062 502.869C491.054 502.688 491.105 502.508 491.208 502.358C491.31 502.208 491.458 502.095 491.63 502.036C491.802 501.976 491.988 501.974 492.161 502.03C495.298 503.031 500.319 503.867 501.124 502.48C501.478 501.872 501.779 499.103 490.867 489.05C485.649 484.238 476.239 477.145 470.537 473.335C470.358 473.219 470.23 473.04 470.178 472.833C470.126 472.627 470.153 472.408 470.256 472.221C470.358 472.035 470.527 471.893 470.729 471.826C470.931 471.758 471.15 471.769 471.344 471.857C483.309 477.075 495.661 478.693 497.008 476.31C497.242 475.899 497.869 473.456 487.236 465.897L485.829 464.903C485.652 464.773 485.534 464.578 485.498 464.361C485.463 464.144 485.513 463.922 485.639 463.742C485.764 463.561 485.955 463.437 486.171 463.396C486.387 463.354 486.61 463.398 486.794 463.519C487.269 463.848 487.745 464.186 488.22 464.521C496.69 470.549 499.951 474.562 498.485 477.154C496.516 480.627 486.15 478.882 477.058 475.851C482.256 479.636 488.226 484.322 492.021 487.82C503.456 498.363 503.529 501.728 502.592 503.341C501.307 505.547 496.966 504.982 494.083 504.312C496.136 507.278 496.592 509.344 495.531 510.731C493.101 513.909 483.089 510.909 475.772 508.373C472.512 507.247 469.319 506.02 466.607 504.934C472.382 509.229 478.422 514.697 476.923 517.88C475.798 520.283 471.063 520.182 462.857 517.579C451.625 514.016 444.997 512.395 432.757 512.927C415.302 513.686 394.896 516.99 373.288 520.489C346.333 524.851 318.458 529.362 293.565 529.362H288.223V529.371Z" fill="#2D314C"/>
<path d="M181.859 505.576C220.596 529.047 248.53 528.523 293.567 528.526C338.296 528.526 393.393 513.807 432.74 512.091C444.943 511.559 451.776 513.183 463.122 516.782C482.158 522.824 480.749 513.968 459.425 500.994C460.446 501.45 507.994 522.611 491.917 502.846C491.917 502.846 515.139 510.278 491.453 488.442C486.108 483.52 481.193 478.187 475.62 474.469C487.646 479.49 511.887 482.4 487.736 465.21C487.264 464.875 486.788 464.54 486.33 464.211C463.234 448.15 324.537 429.795 266.12 422.815" fill="white"/>
<path d="M288.223 529.371C267.318 529.371 250.564 529.269 234.082 526.497C215.583 523.385 199.34 517.154 181.423 506.296C181.326 506.24 181.242 506.164 181.174 506.075C181.107 505.985 181.058 505.883 181.03 505.775C181.002 505.666 180.997 505.553 181.013 505.442C181.03 505.331 181.068 505.225 181.126 505.129C181.184 505.033 181.261 504.95 181.352 504.884C181.442 504.818 181.545 504.771 181.654 504.745C181.763 504.719 181.876 504.715 181.987 504.734C182.097 504.752 182.203 504.793 182.298 504.852C200.02 515.595 216.083 521.758 234.363 524.834C251.34 527.693 268.683 527.688 290.67 527.685H293.584C318.34 527.685 346.147 523.182 373.04 518.831C394.701 515.327 415.15 512.018 432.704 511.249C444.64 510.729 451.523 512.22 463.366 515.98C472.087 518.747 475.114 517.919 475.533 516.993C476.25 515.417 472.388 509.873 458.975 501.72C458.788 501.611 458.649 501.433 458.589 501.224C458.529 501.015 458.552 500.792 458.653 500.599C458.753 500.407 458.924 500.26 459.13 500.191C459.336 500.121 459.56 500.134 459.757 500.226C460.601 500.603 468.25 503.988 476.315 506.78C491.064 511.888 493.72 510.312 494.181 509.707C494.505 509.285 494.865 507.824 491.25 503.38C491.135 503.239 491.069 503.065 491.062 502.883C491.054 502.702 491.105 502.522 491.208 502.372C491.31 502.222 491.458 502.109 491.63 502.05C491.802 501.991 491.988 501.988 492.161 502.044C495.298 503.046 500.319 503.881 501.124 502.494C501.478 501.886 501.779 499.117 490.867 489.064C489.444 487.75 488.032 486.393 486.667 485.079C482.811 481.367 479.168 477.86 475.134 475.173C474.961 475.056 474.837 474.878 474.787 474.676C474.737 474.473 474.764 474.259 474.863 474.075C474.962 473.89 475.125 473.749 475.322 473.679C475.518 473.608 475.734 473.613 475.927 473.692C484.521 477.281 495.787 478.716 497.081 476.386C497.312 475.969 497.925 473.512 487.236 465.9L485.829 464.906C475.927 458.019 443.452 449.957 389.314 440.942C340.257 432.781 286.734 426.133 266.002 423.657C265.789 423.62 265.597 423.503 265.468 423.33C265.339 423.156 265.281 422.94 265.306 422.725C265.332 422.51 265.439 422.313 265.606 422.175C265.772 422.036 265.986 421.968 266.202 421.982C311.774 427.422 462.323 446.501 486.794 463.521C487.269 463.851 487.745 464.188 488.22 464.523C496.724 470.577 500.013 474.607 498.572 477.205C496.758 480.472 487.601 479.175 480.428 477.044C482.932 479.13 485.345 481.454 487.846 483.863C489.205 485.169 490.609 486.523 492.021 487.823C503.456 498.365 503.529 501.731 502.592 503.344C501.307 505.55 496.966 504.982 494.083 504.315C496.136 507.281 496.592 509.347 495.531 510.734C493.098 513.912 483.089 510.912 475.772 508.376C472.813 507.351 469.907 506.248 467.369 505.241C474.717 510.588 478.273 515.063 477.078 517.691C476.279 519.45 473.164 520.86 462.863 517.59C451.63 514.027 445.002 512.406 432.763 512.938C415.307 513.698 394.901 517.002 373.294 520.5C346.338 524.862 318.463 529.373 293.57 529.373H288.223V529.371Z" fill="#2D314C"/>
<path d="M475.62 474.469C462.68 465.12 449.771 462.106 449.771 462.106L475.62 474.469Z" fill="white"/>
<path d="M475.618 475.313C475.441 475.313 475.268 475.257 475.125 475.153C462.5 466.021 449.706 462.959 449.577 462.928C449.363 462.872 449.179 462.736 449.065 462.547C448.951 462.358 448.915 462.132 448.966 461.917C449.016 461.702 449.149 461.516 449.335 461.397C449.521 461.279 449.746 461.238 449.962 461.284C450.091 461.315 463.2 464.445 476.124 473.785C476.268 473.89 476.376 474.038 476.431 474.207C476.487 474.377 476.487 474.56 476.432 474.729C476.377 474.899 476.269 475.047 476.125 475.152C475.981 475.257 475.807 475.313 475.629 475.313H475.618Z" fill="#2D314C"/>
<path d="M440.946 476.13C457.315 480.309 479.84 491.693 491.917 502.846L440.946 476.13Z" fill="white"/>
<path d="M491.917 503.69C491.708 503.687 491.507 503.607 491.354 503.465C479.947 492.928 457.718 481.28 440.746 476.946C440.636 476.92 440.533 476.874 440.441 476.808C440.35 476.742 440.273 476.658 440.214 476.562C440.156 476.466 440.117 476.359 440.1 476.247C440.084 476.136 440.089 476.022 440.117 475.913C440.145 475.804 440.195 475.701 440.263 475.612C440.331 475.522 440.417 475.447 440.514 475.391C440.612 475.334 440.72 475.298 440.832 475.285C440.944 475.271 441.057 475.28 441.165 475.311C458.368 479.704 480.915 491.527 492.499 502.224C492.624 502.338 492.711 502.488 492.75 502.653C492.789 502.817 492.777 502.99 492.716 503.148C492.655 503.306 492.549 503.443 492.41 503.539C492.271 503.636 492.106 503.688 491.936 503.69H491.917ZM459.425 501.841C459.279 501.84 459.136 501.803 459.009 501.731C449.253 496.207 437.154 491.363 437.033 491.318C436.926 491.28 436.828 491.221 436.745 491.144C436.662 491.067 436.594 490.974 436.548 490.871C436.501 490.767 436.476 490.656 436.473 490.542C436.471 490.429 436.491 490.316 436.533 490.211C436.575 490.105 436.638 490.01 436.718 489.929C436.797 489.848 436.893 489.785 436.998 489.742C437.103 489.699 437.215 489.678 437.328 489.679C437.442 489.681 437.554 489.705 437.657 489.751C437.781 489.799 449.987 494.684 459.842 500.262C460.005 500.353 460.134 500.497 460.207 500.669C460.28 500.841 460.294 501.033 460.247 501.215C460.199 501.396 460.092 501.556 459.944 501.67C459.795 501.784 459.613 501.845 459.425 501.844V501.841ZM235.938 441.753C235.764 441.753 235.594 441.699 235.451 441.598C235.309 441.497 235.201 441.355 235.143 441.191C235.084 441.026 235.079 440.848 235.126 440.68C235.173 440.512 235.271 440.363 235.407 440.253C235.57 440.12 251.903 426.902 265.825 422.019C266.036 421.944 266.269 421.957 266.471 422.054C266.673 422.15 266.829 422.324 266.903 422.535C266.978 422.747 266.966 422.979 266.869 423.182C266.772 423.384 266.599 423.54 266.387 423.615C252.747 428.399 236.636 441.432 236.476 441.564C236.324 441.687 236.134 441.754 235.938 441.753Z" fill="#2D314C"/>
<path d="M282.518 323.527C282.518 323.527 297.073 315.748 306.598 312.768C327.797 306.137 341.688 310.291 339.261 316.392C336.448 323.459 323.209 327.436 315.397 336.067C309.652 342.455 304.551 349.395 300.17 356.786" fill="white"/>
<path d="M300.175 357.63C300.028 357.63 299.883 357.591 299.756 357.517C299.628 357.443 299.522 357.337 299.448 357.21C299.374 357.082 299.335 356.938 299.334 356.79C299.333 356.643 299.371 356.498 299.444 356.37C303.864 348.93 309 341.939 314.778 335.499C318.41 331.488 323.234 328.432 327.494 325.736C332.625 322.485 337.058 319.679 338.487 316.083C338.901 315.036 338.718 314.113 337.924 313.269C334.65 309.737 322.649 308.645 306.859 313.584C297.52 316.505 283.069 324.208 282.923 324.278C282.825 324.332 282.717 324.366 282.606 324.379C282.495 324.391 282.382 324.381 282.275 324.349C282.168 324.317 282.068 324.265 281.981 324.194C281.895 324.123 281.823 324.036 281.77 323.937C281.717 323.839 281.685 323.731 281.674 323.619C281.664 323.508 281.675 323.396 281.708 323.289C281.741 323.182 281.796 323.083 281.867 322.997C281.939 322.911 282.027 322.841 282.127 322.789C282.273 322.71 296.864 314.937 306.356 311.968C314.033 309.565 321.336 308.388 327.477 308.566C333.038 308.726 337.19 309.987 339.162 312.115C339.751 312.705 340.151 313.458 340.309 314.276C340.468 315.095 340.379 315.943 340.054 316.71C338.422 320.819 333.775 323.746 328.394 327.168C324.025 329.938 319.507 332.797 316.03 336.638C310.332 342.985 305.269 349.874 300.912 357.208C300.838 357.338 300.73 357.445 300.601 357.519C300.471 357.593 300.325 357.631 300.175 357.63Z" fill="#2D314C"/>
<path d="M122.922 267.502C122.858 267.502 122.795 267.494 122.733 267.48C114.598 265.631 102.369 257.528 99.6996 254.661C99.547 254.497 99.4657 254.279 99.4736 254.055C99.4816 253.831 99.578 253.62 99.7418 253.467C99.9055 253.315 100.123 253.233 100.347 253.241C100.571 253.249 100.782 253.346 100.935 253.51C103.427 256.189 115.408 264.083 123.107 265.833C123.311 265.878 123.491 265.997 123.612 266.166C123.734 266.336 123.788 266.544 123.765 266.751C123.742 266.959 123.643 267.15 123.487 267.289C123.332 267.427 123.13 267.503 122.922 267.502ZM205.469 286.921C201.194 286.921 194.13 284.419 184.411 279.46C175.971 275.157 168.536 270.5 168.46 270.454C168.276 270.333 168.147 270.144 168.1 269.929C168.053 269.713 168.093 269.487 168.21 269.301C168.327 269.114 168.513 268.98 168.728 268.929C168.942 268.877 169.168 268.912 169.358 269.025C169.431 269.07 176.824 273.694 185.187 277.963C198.971 284.999 204.69 285.702 207.056 285.052C208.404 284.684 209.239 283.966 209.588 282.857C210.361 280.502 209.115 276.412 205.981 271.037C204.413 268.366 202.68 265.795 200.791 263.34C200.663 263.163 200.608 262.944 200.638 262.728C200.667 262.511 200.78 262.315 200.951 262.18C201.123 262.045 201.34 261.981 201.557 262.003C201.774 262.025 201.975 262.13 202.116 262.296C202.578 262.878 213.391 276.699 211.191 283.403C210.646 285.066 209.399 286.178 207.486 286.701C206.827 286.863 206.149 286.937 205.469 286.921Z" fill="white"/>
<path d="M92.1745 436.166C90.4304 438.649 90.121 440.951 91.5303 443.152C95.207 448.848 99.3395 444.621 99.3395 444.621L92.1745 436.166Z" fill="#2D314C"/>
</g>
<g clip-path="url(#clip3_430_662)">
<path d="M395.338 244.523L399.823 235.024C400 234.648 400.097 234.239 400.106 233.823C400.115 233.408 400.037 232.995 399.875 232.611C399.714 232.228 399.474 231.883 399.171 231.599C398.868 231.314 398.508 231.097 398.116 230.961L378.557 223.727C378.433 223.686 378.299 223.691 378.179 223.743C378.06 223.795 377.963 223.889 377.909 224.008L352.803 277.128C352.748 277.244 352.737 277.375 352.771 277.497C352.806 277.62 352.884 277.726 352.99 277.796L370.752 288.688C371.106 288.919 371.505 289.071 371.922 289.134C372.34 289.197 372.766 289.169 373.172 289.053C373.578 288.938 373.955 288.737 374.277 288.463C374.599 288.19 374.859 287.851 375.039 287.469L380.157 276.641C380.194 276.568 380.212 276.489 380.212 276.408C380.212 276.327 380.194 276.247 380.157 276.175L378.176 272.311L382.381 271.453C382.459 271.438 382.534 271.405 382.598 271.356C382.662 271.307 382.714 271.245 382.751 271.173L383.925 268.689C383.961 268.616 383.98 268.535 383.98 268.453C383.98 268.372 383.961 268.291 383.925 268.218L382.243 265.03L385.888 264.119C385.963 264.1 386.033 264.066 386.093 264.017C386.153 263.969 386.201 263.908 386.235 263.838L392.436 250.691C392.465 250.624 392.48 250.552 392.48 250.478C392.48 250.405 392.465 250.332 392.436 250.265L390.754 246.186L395.021 244.798C395.089 244.776 395.153 244.74 395.207 244.693C395.262 244.646 395.306 244.588 395.338 244.523Z" fill="#D9C6F4"/>
<path d="M392.503 247.719C392.4 247.719 392.297 247.696 392.203 247.652L373.982 239.042C373.899 239.002 373.824 238.947 373.762 238.879C373.7 238.81 373.653 238.731 373.622 238.644C373.591 238.557 373.577 238.465 373.582 238.373C373.586 238.281 373.609 238.191 373.648 238.108C373.688 238.025 373.743 237.95 373.811 237.888C373.879 237.826 373.959 237.779 374.046 237.748C374.133 237.717 374.224 237.703 374.316 237.708C374.408 237.712 374.498 237.735 374.582 237.774L392.803 246.385C392.947 246.453 393.064 246.568 393.134 246.711C393.203 246.854 393.222 247.017 393.187 247.172C393.153 247.327 393.066 247.466 392.941 247.566C392.817 247.665 392.663 247.719 392.503 247.719ZM383.594 266.384C383.491 266.384 383.388 266.361 383.294 266.317L365.157 257.74C365.07 257.703 364.992 257.649 364.927 257.581C364.862 257.513 364.811 257.433 364.777 257.345C364.744 257.257 364.729 257.163 364.732 257.069C364.736 256.974 364.758 256.882 364.799 256.797C364.839 256.712 364.896 256.635 364.966 256.573C365.036 256.51 365.118 256.462 365.207 256.432C365.297 256.402 365.391 256.39 365.485 256.397C365.579 256.404 365.67 256.43 365.754 256.473L383.894 265.05C384.038 265.118 384.155 265.233 384.225 265.376C384.294 265.519 384.313 265.682 384.278 265.837C384.244 265.992 384.157 266.131 384.032 266.231C383.908 266.33 383.754 266.384 383.594 266.384ZM380.045 273.896C379.942 273.895 379.839 273.872 379.745 273.828L361.599 265.251C361.431 265.172 361.302 265.029 361.239 264.854C361.177 264.679 361.186 264.486 361.266 264.318C361.345 264.15 361.488 264.02 361.664 263.958C361.839 263.895 362.031 263.905 362.199 263.984L380.34 272.561C380.484 272.629 380.6 272.744 380.67 272.887C380.74 273.03 380.759 273.193 380.724 273.348C380.689 273.504 380.602 273.643 380.478 273.742C380.353 273.842 380.199 273.896 380.04 273.896H380.045Z" fill="white"/>
<path d="M381.643 220.845L378.932 219.561C378.533 219.371 378.099 219.262 377.657 219.24C377.215 219.218 376.773 219.284 376.356 219.433C375.94 219.582 375.557 219.812 375.229 220.11C374.901 220.408 374.636 220.767 374.447 221.167L345.794 281.805C341.272 286.852 335.758 295.591 330.822 306.036C322.437 323.775 315.639 338.156 322.913 341.596C330.188 345.036 336.986 330.661 345.368 312.916C350.308 302.469 353.565 292.656 354.591 285.972L383.247 225.323C383.627 224.516 383.672 223.591 383.372 222.752C383.071 221.912 382.449 221.226 381.643 220.845Z" fill="white"/>
<path d="M325.131 342.967C324.238 342.958 323.358 342.75 322.555 342.359C317.587 340.006 318.826 333.574 320.189 328.943C322.044 322.637 325.938 314.396 330.062 305.671C334.853 295.53 340.325 286.67 345.085 281.328L373.679 220.8C373.915 220.3 374.247 219.851 374.657 219.479C375.067 219.108 375.546 218.82 376.066 218.634C376.587 218.448 377.14 218.366 377.692 218.394C378.245 218.422 378.786 218.558 379.286 218.795L382.002 220.082C383.01 220.561 383.788 221.42 384.164 222.471C384.54 223.522 384.484 224.68 384.009 225.69L355.401 286.213C354.3 293.281 350.916 303.134 346.133 313.275C338.391 329.655 332.1 342.964 325.131 342.967ZM377.5 220.082C377.021 220.082 376.552 220.217 376.147 220.474C375.743 220.73 375.42 221.096 375.215 221.529L346.554 282.164C346.52 282.238 346.475 282.306 346.419 282.366C341.743 287.581 336.327 296.337 331.581 306.394C327.489 315.055 323.623 323.237 321.792 329.43C319.32 337.842 321.453 339.976 323.275 340.836C323.833 341.107 324.444 341.249 325.064 341.251C331.049 341.251 337.381 327.852 344.611 312.554C349.377 302.497 352.699 292.76 353.759 285.834C353.771 285.755 353.794 285.677 353.829 285.604L382.487 224.964C382.629 224.664 382.711 224.339 382.728 224.007C382.744 223.676 382.695 223.344 382.584 223.032C382.472 222.719 382.3 222.432 382.077 222.186C381.854 221.94 381.585 221.741 381.284 221.599L378.574 220.318C378.238 220.161 377.871 220.08 377.5 220.082Z" fill="#2D314C"/>
</g>
<g clip-path="url(#clip4_430_662)">
<path d="M282.888 323.691C282.888 323.691 297.368 315.936 306.847 312.962C327.947 306.357 341.756 310.497 339.343 316.581C336.545 323.621 323.374 327.584 315.599 336.186C309.883 342.553 304.809 349.469 300.45 356.835" fill="white"/>
<path d="M300.447 357.677C300.3 357.676 300.156 357.637 300.029 357.564C299.902 357.49 299.797 357.385 299.723 357.258C299.65 357.131 299.611 356.986 299.61 356.84C299.609 356.693 299.647 356.548 299.719 356.42C304.116 349.005 309.226 342.039 314.975 335.62C318.588 331.623 323.388 328.58 327.625 325.893C332.73 322.653 337.141 319.854 338.562 316.269C338.974 315.226 338.792 314.306 338.003 313.464C334.745 309.933 322.806 308.845 307.097 313.767C297.805 316.682 283.428 324.356 283.282 324.431C283.185 324.489 283.076 324.526 282.964 324.541C282.852 324.555 282.738 324.547 282.629 324.516C282.52 324.485 282.418 324.433 282.33 324.362C282.242 324.29 282.169 324.202 282.116 324.102C282.062 324.002 282.03 323.892 282.02 323.779C282.01 323.666 282.023 323.552 282.059 323.444C282.094 323.336 282.151 323.237 282.225 323.151C282.3 323.066 282.391 322.997 282.493 322.948C282.639 322.869 297.161 315.122 306.596 312.163C314.233 309.768 321.51 308.595 327.608 308.772C333.144 308.932 337.272 310.188 339.234 312.309C339.82 312.897 340.217 313.647 340.375 314.463C340.534 315.279 340.445 316.124 340.121 316.889C338.498 320.981 333.875 323.915 328.523 327.312C324.174 330.069 319.68 332.921 316.209 336.747C310.545 343.075 305.511 349.942 301.18 357.25C301.107 357.38 301 357.488 300.871 357.563C300.742 357.638 300.596 357.677 300.447 357.677Z" fill="#2D314C"/>
</g>
<defs>
<clipPath id="clip0_430_662">
<rect width="186.701" height="226.387" fill="white" transform="translate(413.088 306.509)"/>
</clipPath>
<clipPath id="clip1_430_662">
<rect width="50.6688" height="22.7136" fill="white" transform="translate(417.331 440.544)"/>
</clipPath>
<clipPath id="clip2_430_662">
<rect width="479.232" height="443.29" fill="white" transform="translate(23.712 89.3568)"/>
</clipPath>
<clipPath id="clip3_430_662">
<rect width="81.12" height="124.55" fill="white" transform="translate(318.989 218.4)"/>
</clipPath>
<clipPath id="clip4_430_662">
<rect width="58.4064" height="48.9216" fill="white" transform="translate(282.048 308.755)"/>
</clipPath>
</defs>
</svg>
