<svg width="130" height="48" viewBox="0 0 130 48" fill="none" xmlns="http://www.w3.org/2000/svg">
<path d="M29.7337 19.1386C29.7337 17.0108 29.8362 10.073 28.0058 7.5135C27.8646 7.31609 27.5762 7.38165 27.489 7.60812C26.6286 9.84237 24.357 13.7562 22.1544 15.7724C22.0797 15.8409 21.9776 15.868 21.878 15.8489L16.4822 14.8139C16.311 14.781 16.1964 14.6181 16.2159 14.4448C16.6205 10.843 14.994 8.35244 14.2416 7.41404C14.0863 7.22037 13.7937 7.2894 13.7186 7.52602C13.252 8.99661 11.7777 13.2114 9.47726 15.7909C9.42591 15.8485 9.35673 15.8845 9.28034 15.8953C8.52151 16.0026 4.32771 16.6407 3.99767 17.6775C3.71569 18.5633 3.73315 19.4293 3.75499 19.7718C3.76121 19.8694 3.72675 19.9682 3.65972 20.0393C-1.56717 25.588 0.0498332 30.1695 1.02268 32.0729C1.9625 33.9117 2.30116 33.6921 2.32705 33.6713L2.33042 33.6683L11.0384 25.3955C11.1528 25.2868 11.3285 25.2754 11.456 25.3684L29.1973 38.3041C29.4164 38.4639 29.7241 38.3065 29.719 38.0354C29.6293 33.3289 29.7337 23.8517 29.7337 19.1386Z" fill="#FF9F10"/>
<path d="M29.408 20.0702C27.9961 18.5195 24.398 16.069 19.1131 15.4448M15.5487 38.7352C-3.06624 39.3062 -0.810659 23.7706 5.64224 21.3065C5.72352 21.2755 5.78214 21.2034 5.7932 21.1171L6.33102 16.9221C6.3426 16.8318 6.40699 16.7565 6.49435 16.7309C11.4601 15.275 15.6798 15.0393 19.1131 15.4448M12.3292 14.4739L16.524 7.29843C16.607 7.1566 16.8069 7.14533 16.9002 7.28059C17.963 8.82237 19.6309 12.204 19.1131 15.4448M24.6323 15.9686L29.5279 7.29016C29.6069 7.15 29.8004 7.13259 29.8943 7.26325C30.8898 8.64819 32.5079 12.1969 32.3361 17.3484C32.1522 22.8676 32.2595 34.7491 32.3361 40" stroke="#2D314C" stroke-width="1.37979" stroke-linecap="round"/>
<circle cx="17.318" cy="22.0307" r="2.9408" fill="#2D314C"/>
<circle cx="9.1096" cy="22.0627" r="2.18467" fill="#2D314C"/>
<path d="M12.8461 26.9321H9.92676C9.73895 26.9321 9.63034 27.145 9.7406 27.297L10.9757 29C11.059 29.1149 11.2255 29.1276 11.3254 29.0267L13.0096 27.3237C13.1532 27.1785 13.0503 26.9321 12.8461 26.9321Z" fill="#DD5353" stroke="#2D314C" stroke-width="0.228729"/>
<path d="M63.104 19.768C63.104 21.0693 62.8053 22.264 62.208 23.352C61.6107 24.4187 60.6933 25.2827 59.456 25.944C58.2187 26.6053 56.6827 26.936 54.848 26.936H51.456V35H45.984V12.536H54.848C56.64 12.536 58.1547 12.8453 59.392 13.464C60.6293 14.0827 61.5573 14.936 62.176 16.024C62.7947 17.112 63.104 18.36 63.104 19.768ZM54.432 22.584C55.4773 22.584 56.256 22.3387 56.768 21.848C57.28 21.3573 57.536 20.664 57.536 19.768C57.536 18.872 57.28 18.1787 56.768 17.688C56.256 17.1973 55.4773 16.952 54.432 16.952H51.456V22.584H54.432ZM71.4248 16.92V21.464H78.7528V25.688H71.4248V30.616H79.7128V35H65.9528V12.536H79.7128V16.92H71.4248ZM91.6813 12.536C94.0493 12.536 96.1186 13.0053 97.8893 13.944C99.6599 14.8827 101.025 16.2053 101.985 17.912C102.967 19.5973 103.457 21.5493 103.457 23.768C103.457 25.9653 102.967 27.9173 101.985 29.624C101.025 31.3307 99.6493 32.6533 97.8573 33.592C96.0866 34.5307 94.0279 35 91.6813 35H83.2653V12.536H91.6813ZM91.3293 30.264C93.3986 30.264 95.0093 29.6987 96.1613 28.568C97.3133 27.4373 97.8893 25.8373 97.8893 23.768C97.8893 21.6987 97.3133 20.088 96.1613 18.936C95.0093 17.784 93.3986 17.208 91.3293 17.208H88.7373V30.264H91.3293ZM117.139 35.224C115.027 35.224 113.086 34.7333 111.315 33.752C109.566 32.7707 108.169 31.4053 107.123 29.656C106.099 27.8853 105.587 25.9013 105.587 23.704C105.587 21.5067 106.099 19.5333 107.123 17.784C108.169 16.0347 109.566 14.6693 111.315 13.688C113.086 12.7067 115.027 12.216 117.139 12.216C119.251 12.216 121.182 12.7067 122.931 13.688C124.702 14.6693 126.089 16.0347 127.091 17.784C128.115 19.5333 128.627 21.5067 128.627 23.704C128.627 25.9013 128.115 27.8853 127.091 29.656C126.067 31.4053 124.681 32.7707 122.931 33.752C121.182 34.7333 119.251 35.224 117.139 35.224ZM117.139 30.232C118.931 30.232 120.361 29.6347 121.427 28.44C122.515 27.2453 123.059 25.6667 123.059 23.704C123.059 21.72 122.515 20.1413 121.427 18.968C120.361 17.7733 118.931 17.176 117.139 17.176C115.326 17.176 113.875 17.7627 112.787 18.936C111.721 20.1093 111.187 21.6987 111.187 23.704C111.187 25.688 111.721 27.2773 112.787 28.472C113.875 29.6453 115.326 30.232 117.139 30.232Z" fill="#FF9F10"/>
</svg>
